<?xml version="1.0" encoding="UTF-8" standalone="no"?>
<!DOCTYPE svg PUBLIC "-//W3C//DTD SVG 1.1//EN"
 "http://www.w3.org/Graphics/SVG/1.1/DTD/svg11.dtd">
<!-- Generated by graphviz version 2.47.0 (20210316.0004)
 -->
<!-- Title: dependencies Pages: 1 -->
<svg width="1113pt" height="211pt"
 viewBox="0.00 0.00 1113.00 211.00" xmlns="http://www.w3.org/2000/svg" xmlns:xlink="http://www.w3.org/1999/xlink">
<g id="graph0" class="graph" transform="scale(1 1) rotate(0) translate(4 207)">
<title>dependencies</title>
<polygon fill="white" stroke="transparent" points="-4,4 -4,-207 1109,-207 1109,4 -4,4"/>
<text text-anchor="start" x="531.51" y="-42.4" font-family="Times-12" font-weight="bold" font-size="14.00">Legend</text>
<polygon fill="#ffffb3" stroke="transparent" points="318.5,-10 318.5,-30 338.5,-30 338.5,-10 318.5,-10"/>
<text text-anchor="start" x="342.13" y="-15.4" font-family="Times-12" font-size="14.00"> &#160;Declarations</text>
<polygon fill="#8dd3c7" stroke="transparent" points="431.5,-10 431.5,-30 451.5,-30 451.5,-10 431.5,-10"/>
<text text-anchor="start" x="455.23" y="-15.4" font-family="Times-12" font-size="14.00"> &#160;Module</text>
<polygon fill="#80b1d3" stroke="transparent" points="517.5,-10 517.5,-30 537.5,-30 537.5,-10 517.5,-10"/>
<text text-anchor="start" x="541.28" y="-15.4" font-family="Times-12" font-size="14.00"> &#160;Bootstrap</text>
<polygon fill="#fdb462" stroke="transparent" points="614.5,-10 614.5,-30 634.5,-30 634.5,-10 614.5,-10"/>
<text text-anchor="start" x="638.17" y="-15.4" font-family="Times-12" font-size="14.00"> &#160;Providers</text>
<polygon fill="#fb8072" stroke="transparent" points="710.5,-10 710.5,-30 730.5,-30 730.5,-10 710.5,-10"/>
<text text-anchor="start" x="734.23" y="-15.4" font-family="Times-12" font-size="14.00"> &#160;Exports</text>
<g id="clust1" class="cluster">
<title>cluster_PagesModule</title>
<polygon fill="none" stroke="black" stroke-dasharray="1,5" points="8,-70 8,-195 1097,-195 1097,-70 8,-70"/>
</g>
<g id="clust3" class="cluster">
<title>cluster_PagesModule_imports</title>
<polygon fill="none" stroke="black" points="16,-78 16,-130 1089,-130 1089,-78 16,-78"/>
</g>
<!-- BannerCustomCakeComponent -->
<g id="node1" class="node">
<title>BannerCustomCakeComponent</title>
<polygon fill="#8dd3c7" stroke="black" points="1081.09,-122 1078.09,-126 1057.09,-126 1054.09,-122 886.91,-122 886.91,-86 1081.09,-86 1081.09,-122"/>
<text text-anchor="middle" x="984" y="-99.8" font-family="Times,serif" font-size="14.00">BannerCustomCakeComponent</text>
</g>
<!-- PagesModule -->
<g id="node8" class="node">
<title>PagesModule</title>
<polygon fill="#8dd3c7" stroke="black" points="466.21,-187 463.21,-191 442.21,-191 439.21,-187 373.79,-187 373.79,-151 466.21,-151 466.21,-187"/>
<text text-anchor="middle" x="420" y="-164.8" font-family="Times,serif" font-size="14.00">PagesModule</text>
</g>
<!-- BannerCustomCakeComponent&#45;&gt;PagesModule -->
<g id="edge1" class="edge">
<title>BannerCustomCakeComponent&#45;&gt;PagesModule</title>
<path fill="none" stroke="black" d="M984,-122.29C984,-144.21 984,-178 984,-178 984,-178 476.15,-178 476.15,-178"/>
<polygon fill="black" stroke="black" points="476.15,-174.5 466.15,-178 476.15,-181.5 476.15,-174.5"/>
</g>
<!-- CustomCakesComponent -->
<g id="node2" class="node">
<title>CustomCakesComponent</title>
<polygon fill="#8dd3c7" stroke="black" points="868.61,-122 865.61,-126 844.61,-126 841.61,-122 709.39,-122 709.39,-86 868.61,-86 868.61,-122"/>
<text text-anchor="middle" x="789" y="-99.8" font-family="Times,serif" font-size="14.00">CustomCakesComponent</text>
</g>
<!-- CustomCakesComponent&#45;&gt;PagesModule -->
<g id="edge2" class="edge">
<title>CustomCakesComponent&#45;&gt;PagesModule</title>
<path fill="none" stroke="black" d="M789,-122.11C789,-141.34 789,-169 789,-169 789,-169 476.36,-169 476.36,-169"/>
<polygon fill="black" stroke="black" points="476.36,-165.5 466.36,-169 476.36,-172.5 476.36,-165.5"/>
</g>
<!-- FooterComponent -->
<g id="node3" class="node">
<title>FooterComponent</title>
<polygon fill="#8dd3c7" stroke="black" points="691.88,-122 688.88,-126 667.88,-126 664.88,-122 574.12,-122 574.12,-86 691.88,-86 691.88,-122"/>
<text text-anchor="middle" x="633" y="-99.8" font-family="Times,serif" font-size="14.00">FooterComponent</text>
</g>
<!-- FooterComponent&#45;&gt;PagesModule -->
<g id="edge3" class="edge">
<title>FooterComponent&#45;&gt;PagesModule</title>
<path fill="none" stroke="black" d="M633,-122.03C633,-138.4 633,-160 633,-160 633,-160 476.22,-160 476.22,-160"/>
<polygon fill="black" stroke="black" points="476.22,-156.5 466.22,-160 476.22,-163.5 476.22,-156.5"/>
</g>
<!-- MiamicakesModule -->
<g id="node4" class="node">
<title>MiamicakesModule</title>
<polygon fill="#8dd3c7" stroke="black" points="555.97,-122 552.97,-126 531.97,-126 528.97,-122 428.03,-122 428.03,-86 555.97,-86 555.97,-122"/>
<text text-anchor="middle" x="492" y="-99.8" font-family="Times,serif" font-size="14.00">MiamicakesModule</text>
</g>
<!-- MiamicakesModule&#45;&gt;PagesModule -->
<g id="edge4" class="edge">
<title>MiamicakesModule&#45;&gt;PagesModule</title>
<path fill="none" stroke="black" d="M447.06,-122.11C447.06,-122.11 447.06,-140.99 447.06,-140.99"/>
<polygon fill="black" stroke="black" points="443.56,-140.99 447.06,-150.99 450.56,-140.99 443.56,-140.99"/>
</g>
<!-- NavbarComponent -->
<g id="node5" class="node">
<title>NavbarComponent</title>
<polygon fill="#8dd3c7" stroke="black" points="410.03,-122 407.03,-126 386.03,-126 383.03,-122 287.97,-122 287.97,-86 410.03,-86 410.03,-122"/>
<text text-anchor="middle" x="349" y="-99.8" font-family="Times,serif" font-size="14.00">NavbarComponent</text>
</g>
<!-- NavbarComponent&#45;&gt;PagesModule -->
<g id="edge5" class="edge">
<title>NavbarComponent&#45;&gt;PagesModule</title>
<path fill="none" stroke="black" d="M392.08,-122.11C392.08,-122.11 392.08,-140.99 392.08,-140.99"/>
<polygon fill="black" stroke="black" points="388.58,-140.99 392.08,-150.99 395.58,-140.99 388.58,-140.99"/>
</g>
<!-- NosotrosComponentc -->
<g id="node6" class="node">
<title>NosotrosComponentc</title>
<polygon fill="#8dd3c7" stroke="black" points="270.09,-122 267.09,-126 246.09,-126 243.09,-122 131.91,-122 131.91,-86 270.09,-86 270.09,-122"/>
<text text-anchor="middle" x="201" y="-99.8" font-family="Times,serif" font-size="14.00">NosotrosComponentc</text>
</g>
<!-- NosotrosComponentc&#45;&gt;PagesModule -->
<g id="edge6" class="edge">
<title>NosotrosComponentc&#45;&gt;PagesModule</title>
<path fill="none" stroke="black" d="M201,-122.03C201,-138.4 201,-160 201,-160 201,-160 363.82,-160 363.82,-160"/>
<polygon fill="black" stroke="black" points="363.82,-163.5 373.82,-160 363.82,-156.5 363.82,-163.5"/>
</g>
<!-- RouterOutlet -->
<g id="node7" class="node">
<title>RouterOutlet</title>
<polygon fill="#8dd3c7" stroke="black" points="113.6,-122 110.6,-126 89.6,-126 86.6,-122 24.4,-122 24.4,-86 113.6,-86 113.6,-122"/>
<text text-anchor="middle" x="69" y="-99.8" font-family="Times,serif" font-size="14.00">RouterOutlet</text>
</g>
<!-- RouterOutlet&#45;&gt;PagesModule -->
<g id="edge7" class="edge">
<title>RouterOutlet&#45;&gt;PagesModule</title>
<path fill="none" stroke="black" d="M54.15,-122.29C54.15,-144.21 54.15,-178 54.15,-178 54.15,-178 363.66,-178 363.66,-178"/>
<polygon fill="black" stroke="black" points="363.66,-181.5 373.66,-178 363.66,-174.5 363.66,-181.5"/>
</g>
<!-- RouterOutlet&#45;&gt;PagesModule -->
<g id="edge8" class="edge">
<title>RouterOutlet&#45;&gt;PagesModule</title>
<path fill="none" stroke="black" d="M83.85,-122.11C83.85,-141.34 83.85,-169 83.85,-169 83.85,-169 363.61,-169 363.61,-169"/>
<polygon fill="black" stroke="black" points="363.61,-172.5 373.61,-169 363.61,-165.5 363.61,-172.5"/>
</g>
</g>
</svg>
