<svg width="34" height="34" viewBox="0 0 34 34" fill="none" xmlns="http://www.w3.org/2000/svg">
<path d="M24.0833 2.83337H9.91665C6.00463 2.83337 2.83331 6.00469 2.83331 9.91671V24.0834C2.83331 27.9954 6.00463 31.1667 9.91665 31.1667H24.0833C27.9953 31.1667 31.1666 27.9954 31.1666 24.0834V9.91671C31.1666 6.00469 27.9953 2.83337 24.0833 2.83337Z" stroke="white" stroke-width="2" stroke-linecap="round" stroke-linejoin="round"/>
<path d="M22.6666 16.1074C22.8415 17.2865 22.6401 18.4906 22.0911 19.5485C21.5422 20.6065 20.6736 21.4644 19.6089 22.0003C18.5443 22.5362 17.3378 22.7227 16.161 22.5333C14.9842 22.344 13.8971 21.7884 13.0543 20.9456C12.2115 20.1028 11.6559 19.0157 11.4666 17.8389C11.2772 16.6621 11.4637 15.4556 11.9996 14.391C12.5355 13.3263 13.3934 12.4577 14.4514 11.9088C15.5093 11.3598 16.7135 11.1584 17.8925 11.3333C19.0951 11.5116 20.2085 12.072 21.0682 12.9317C21.9279 13.7914 22.4883 14.9048 22.6666 16.1074Z" stroke="white" stroke-width="2" stroke-linecap="round" stroke-linejoin="round"/>
<path d="M24.7917 9.20837H24.8059" stroke="white" stroke-width="2" stroke-linecap="round" stroke-linejoin="round"/>
</svg>
