<svg width="77" height="79" viewBox="0 0 77 79" fill="none" xmlns="http://www.w3.org/2000/svg">
<g clip-path="url(#clip0_1_4)">
<path d="M34.9913 2.02734C31.5159 2.16114 27.9216 1.89703 15.148 8.06343C0.685996 19.6163 -0.436406 36.8418 0.236733 42.8617C0.707386 53.7752 11.281 79.6035 39.7755 78.8324C48.7449 79.0585 68.7195 73.0223 75.3481 50.4716C75.9712 43.8338 76.6428 36.7459 73.8347 29.8997C69.2973 32.9048 63.6514 32.7656 58.6885 26.2854C52.9119 30.0463 41.0837 24.8303 43.0455 14.6004C40.1062 13.8676 34.6356 11.9347 34.9913 2.02734Z" fill="#FFCECE" stroke="#FFCECE" stroke-width="1.23591" stroke-miterlimit="1.8" stroke-linecap="square"/>
<path d="M34.71 2.28311C12.9126 4.94355 2.09739 24.3021 2.51516 38.4929C2.52757 64.6152 23.6278 76.2398 37.1865 76.2131C63.2478 77.172 78.7671 51.9715 73.4732 30.296" stroke="white" stroke-width="5.39339" stroke-miterlimit="1.8" stroke-linecap="square"/>
<path d="M25.7033 53.7468C25.6595 53.732 25.5275 53.6984 25.4102 53.6723C25.1311 53.6101 24.7126 53.2491 24.6133 52.9848C24.3963 52.4073 24.02 49.2971 23.7855 46.1424C23.7557 45.742 23.712 45.3822 23.6883 45.3428C23.5937 45.185 22.5848 47.1446 21.6669 49.2691C21.3526 49.9963 21.0594 50.6369 21.0153 50.6925C20.9711 50.7481 20.7868 50.7935 20.6056 50.7934L20.2762 50.7933L18.8595 47.9556C18.0804 46.3949 17.4253 45.1664 17.4037 45.2257C17.3821 45.285 17.3118 46.371 17.2475 47.6389C17.0954 50.6357 16.9226 51.5745 16.3585 52.4682C15.6831 53.5383 14.0118 53.9828 12.4499 53.5078C11.7314 53.2893 11.4679 52.7612 11.8308 52.2667C12.1028 51.8962 12.2865 51.938 12.6053 52.4431C12.9585 53.0027 13.2572 53.168 13.899 53.1588C15.1003 53.1416 15.7587 52.4108 16.0387 50.7836C16.1757 49.9872 16.3657 47.5665 16.4877 45.063C16.5705 43.3651 16.569 43.3304 16.3974 42.9712C16.0921 42.3321 15.5135 42.2343 14.6076 42.6686C13.7343 43.0873 13.2926 43.6273 13.2926 44.2761C13.2926 44.5206 13.3436 44.7647 13.4169 44.8706C13.5915 45.1233 14.0351 45.1115 14.4158 44.8442C14.6366 44.6891 14.7636 44.6516 14.9275 44.6933C15.3504 44.8009 15.4946 45.6489 15.1742 46.1445C14.8071 46.7124 13.7042 46.8423 13.0645 46.393C12.5683 46.0445 12.3864 45.5919 12.4307 44.8164C12.4752 44.0369 12.6942 43.5463 13.2498 42.9814C14.0759 42.1415 15.3818 41.6984 16.8842 41.7481C17.6112 41.7721 17.7837 41.8063 18.1869 42.0064C18.4878 42.1557 18.7375 42.3551 18.895 42.5719C19.0289 42.7561 19.6395 43.9347 20.252 45.191C20.8645 46.4473 21.3942 47.493 21.4291 47.5149C21.464 47.5368 21.7898 46.9639 22.1532 46.2418C24.1324 42.3095 25.4603 40.2104 26.455 39.4416C26.9981 39.0218 27.3808 38.8795 27.9911 38.8703C28.4501 38.8634 28.5512 38.8892 28.7293 39.0585C28.9853 39.3017 29.0158 39.8362 28.7899 40.119C28.6129 40.3405 28.4705 40.2811 28.2003 39.8733C27.9701 39.526 27.647 39.4696 27.2057 39.6996C26.7814 39.9208 26.5077 40.2368 26.2496 40.8037C26.0506 41.2409 26.0299 41.3697 26.0412 42.1015C26.0621 43.4593 26.8557 51.7539 27.0332 52.4696C27.141 52.9045 27.2679 53.0107 27.5981 52.9426C28.4415 52.7687 28.499 52.9494 27.7231 53.3351C27.0073 53.6909 26.0907 53.8777 25.7033 53.7468ZM30.0132 53.6629C29.8376 53.5988 29.6859 53.5457 29.676 53.5451C29.6662 53.5447 29.6033 53.4365 29.5364 53.3052C29.433 53.1027 29.4146 52.5655 29.4146 49.7586C29.4146 46.6566 29.4056 46.4423 29.2686 46.3168C29.1036 46.1654 28.8375 46.1439 28.6161 46.264C28.3939 46.3845 28.3555 46.2316 28.5593 46.0375C29.1545 45.4708 30.4992 45.2086 31.1997 45.5227C31.818 45.7999 31.8089 45.7371 31.8089 49.7285C31.8089 53.0608 31.8027 53.2065 31.6514 53.4015C31.3786 53.7529 30.6001 53.8772 30.0132 53.6629ZM34.5236 53.633C33.719 53.3425 33.2405 52.5671 33.2491 51.5676C33.2557 50.7869 33.6488 50.0688 34.3206 49.6099C34.5414 49.4591 35.153 49.1675 35.6798 48.9617C36.2066 48.756 36.7581 48.4968 36.9054 48.3858C37.6069 47.8569 37.5585 46.6402 36.8179 46.1825C36.306 45.8662 35.1565 46.0617 34.9225 46.5048C34.8227 46.6938 34.9283 46.9109 35.1201 46.9109C35.1747 46.9109 35.3139 46.9864 35.4296 47.0786C35.8455 47.4102 35.6127 48.1075 35.0372 48.2539C34.4027 48.4153 33.883 47.9408 33.8854 47.2023C33.8871 46.6228 34.136 46.2102 34.6844 45.8773C35.3245 45.4887 35.6469 45.4178 36.7573 45.4214C37.6034 45.4241 37.8276 45.4531 38.2338 45.6116C38.8798 45.8638 39.5634 46.5553 39.6965 47.0912C39.7582 47.3396 39.7901 48.3349 39.7901 50.0148C39.7901 52.2222 39.8069 52.5786 39.9155 52.6887C40.0819 52.8574 40.2058 52.849 40.4522 52.6527C40.7218 52.4377 40.8084 52.5834 40.5931 52.8898C40.174 53.4863 39.1267 53.9015 38.5119 53.7148C38.0976 53.589 37.6605 53.1976 37.5945 52.8933C37.566 52.7617 37.5097 52.6541 37.4693 52.6541C37.429 52.6541 37.249 52.7986 37.0694 52.9753C36.3606 53.6724 35.3535 53.9326 34.5236 53.633ZM36.9402 52.4153C37.3103 52.086 37.3958 51.7178 37.3958 50.453C37.3958 49.4695 37.3803 49.3485 37.2379 49.2179C37.1203 49.1101 36.9992 49.0841 36.7628 49.1163C36.0402 49.2145 35.6316 49.8328 35.5761 50.9116C35.5575 51.2739 35.5843 51.7185 35.6367 51.9151C35.8345 52.6576 36.4169 52.881 36.9402 52.4153ZM42.6781 53.7111C42.5325 53.6737 42.326 53.5598 42.2191 53.458L42.0248 53.273V49.9744C42.0248 47.6579 41.9975 46.615 41.9329 46.4714C41.8219 46.2245 41.6234 46.1502 41.2597 46.2193C40.9241 46.2831 40.9068 46.1711 41.2176 45.9468C41.92 45.4399 43.1559 45.2224 43.6993 45.5101C44.0486 45.695 44.3394 46.1286 44.3394 46.4645C44.3394 46.6062 44.3621 46.7452 44.3898 46.7732C44.4175 46.8014 44.6585 46.6241 44.9253 46.3794C45.5811 45.7779 46.3867 45.3734 46.924 45.3758C47.1486 45.3767 47.4763 45.4438 47.6522 45.5249C48.0269 45.6974 48.4652 46.173 48.5394 46.4877C48.568 46.6093 48.607 46.7366 48.6259 46.7707C48.6448 46.8048 48.8957 46.6174 49.1834 46.3543C49.9437 45.6588 50.4618 45.4144 51.1763 45.4144C51.6844 45.4144 51.7867 45.4419 52.0942 45.6606C52.3502 45.8427 52.4864 46.0217 52.6174 46.3482C52.7884 46.7744 52.7946 46.8863 52.797 49.6058C52.7987 51.3876 52.8298 52.4795 52.882 52.5785C52.9801 52.7642 53.266 52.7822 53.4825 52.6163C53.678 52.4664 53.7572 52.4625 53.7572 52.6026C53.7572 52.7664 53.0216 53.4334 52.668 53.5904C52.2362 53.782 51.4046 53.7827 51.0201 53.5917C50.451 53.309 50.4498 53.3018 50.4051 49.9126L50.3652 46.8879L50.1544 46.7285C49.972 46.5905 49.9063 46.5816 49.6659 46.662C49.3135 46.7799 48.6495 47.4359 48.6484 47.6673C48.632 51.2641 48.5946 53.2097 48.5395 53.3245C48.2833 53.8593 46.8784 53.9231 46.4131 53.4211L46.2225 53.2155L46.1924 50.0835C46.1665 47.3964 46.1446 46.9316 46.0384 46.812C45.8523 46.6023 45.657 46.568 45.3629 46.6933C45.0419 46.8301 44.42 47.4449 44.4171 47.6283C44.4158 47.7009 44.4065 48.9798 44.3962 50.4702C44.386 51.9606 44.3466 53.245 44.3088 53.3245C44.1511 53.657 43.2746 53.8647 42.6781 53.7111ZM55.6026 53.6803C55.4544 53.6232 55.2658 53.4923 55.1836 53.3894C55.0429 53.2133 55.0341 53.0065 55.0341 49.8724C55.0341 46.0007 55.0569 46.1268 54.377 46.2182C53.8089 46.2945 53.9067 46.1344 54.6704 45.738C55.258 45.4328 55.3336 45.4144 55.9958 45.4144C56.7921 45.4144 57.0395 45.5316 57.2887 46.0268C57.4149 46.2777 57.4282 46.6258 57.4283 49.6775C57.4285 53.3248 57.4227 53.3782 57.0009 53.5992C56.6838 53.7654 55.9364 53.8087 55.6026 53.6803ZM30.0319 44.5422C29.3459 44.3174 29.0291 43.704 29.3066 43.138C29.5214 42.6999 29.8104 42.5188 30.3585 42.4786C31.0871 42.4252 31.6234 42.7986 31.7052 43.4163C31.8103 44.2104 30.8963 44.8254 30.0319 44.5422ZM55.6657 44.5723C54.915 44.3288 54.5836 43.6221 54.9344 43.0128C55.3378 42.312 56.6348 42.2721 57.1083 42.9459C57.459 43.4451 57.2988 44.0885 56.7413 44.4195C56.4562 44.5887 55.9418 44.6618 55.6657 44.5723Z" fill="black"/>
<path d="M40.4259 65.2861C40.3798 65.1974 40.3421 65.0684 40.3421 64.9994C40.3421 64.766 40.1948 64.7781 39.7764 65.0458C39.253 65.3806 38.5787 65.4573 38.0354 65.2437C36.733 64.7319 36.6711 62.7577 37.9384 62.1506C38.5602 61.8527 39.0845 61.8954 40.0478 62.3226C40.191 62.3861 40.1972 62.3425 40.1673 61.4813C40.1407 60.7141 40.1057 60.5185 39.9422 60.2219C39.6388 59.6714 39.0657 59.4711 38.5616 59.7393C38.2061 59.9285 38.0749 60.1807 38.0749 60.6749C38.0749 61.1026 38.0686 61.1146 37.8445 61.1146C37.5352 61.1146 37.3461 60.8792 37.3461 60.4942C37.3461 60.2403 37.4058 60.1171 37.6508 59.865C38.0498 59.4544 38.6823 59.2992 39.4297 59.4287C40.0983 59.5445 40.4263 59.7676 40.7108 60.3001C40.9347 60.7192 40.9471 60.7974 40.9768 61.981C40.994 62.6638 40.982 63.723 40.9501 64.3348C40.8931 65.4317 40.8896 65.4472 40.701 65.4472C40.5947 65.4472 40.4724 65.3756 40.4259 65.2861ZM39.4919 64.8261C40.1881 64.4771 40.1801 64.4918 40.1801 63.5528V62.7182L39.755 62.5276C39.5212 62.4228 39.1445 62.3203 38.9178 62.2999C38.5457 62.2663 38.4776 62.2881 38.2154 62.525C37.6106 63.0714 37.6494 64.3409 38.2866 64.8566C38.5729 65.0883 38.9897 65.0777 39.4919 64.8261ZM45.281 65.1333C45.0346 64.8798 44.9274 64.6574 44.7236 63.9778C44.3501 62.7323 44.1203 62.5127 43.4111 62.7235L43.0546 62.8295L43.0068 63.7499C42.9526 64.7937 42.7806 65.3031 42.4669 65.349L42.2841 65.3756L42.3049 60.4331L42.3258 55.4905H42.5246C42.6906 55.4905 42.7409 55.5523 42.8286 55.8642C42.9924 56.4461 43.0946 58.2128 43.0948 60.4649L43.0949 62.523L43.4778 62.4045C44.0477 62.228 44.4715 61.8825 44.7024 61.4062C44.867 61.0666 44.9055 60.8605 44.9106 60.2909C44.9164 59.6386 44.9293 59.5875 45.105 59.5206C45.5077 59.3673 45.7262 59.7015 45.7188 60.4593C45.7118 61.1715 45.3361 61.8413 44.7562 62.1753C44.6448 62.2394 44.6654 62.2927 44.9015 62.5503C45.0967 62.7633 45.2427 63.0644 45.4037 63.5865C45.6961 64.5341 45.9033 64.9216 46.1866 65.0507C46.5981 65.2381 46.4324 65.4472 45.8723 65.4472C45.6492 65.4472 45.5187 65.3779 45.281 65.1333ZM48.3804 65.3094C47.9334 65.1466 47.3624 64.4933 47.1695 63.9242C46.9789 63.3616 46.9764 62.1701 47.1646 61.5312C47.3544 60.8869 47.7722 60.2099 48.1741 59.8954C48.9121 59.318 49.9323 59.3394 50.5511 59.9452C50.8558 60.2434 50.8682 60.2765 50.8674 60.7892C50.8657 62.0846 49.8409 63.1189 48.3581 63.3222C48.1132 63.3558 47.8888 63.3978 47.8594 63.4157C47.7697 63.4701 47.9973 64.3245 48.1846 64.6363C48.4373 65.057 48.6876 65.1973 49.1852 65.197C49.6906 65.1966 50.0821 64.9857 50.2859 64.6041C50.6352 63.9502 50.8682 63.8105 50.8682 64.255C50.8682 64.8827 50.073 65.4522 49.2127 65.4407C48.9431 65.4367 48.5686 65.378 48.3804 65.3094ZM49.0014 62.8171C49.4988 62.5386 49.8595 62.0267 50.024 61.3661C50.2405 60.4964 50.0135 59.8429 49.4576 59.7355C48.5976 59.5695 47.7976 60.9685 47.7927 62.6468L47.791 63.1375L48.1988 63.0878C48.423 63.0605 48.7844 62.9387 49.0014 62.8171ZM52.5057 65.2707C52.073 65.0503 51.7834 64.5659 51.7123 63.9436C51.6486 63.3861 51.8297 62.8339 52.061 62.8801C52.186 62.9051 52.2042 63.0096 52.2042 63.7017C52.2042 64.6061 52.2976 64.8355 52.757 65.0598C53.3182 65.3339 54.0806 65.1528 54.313 64.6902C54.4844 64.3492 54.4627 63.7284 54.268 63.4042C54.1784 63.255 53.896 62.9716 53.6405 62.7743C53.3849 62.577 52.9886 62.2715 52.7598 62.0954C52.2717 61.7198 51.9526 61.2728 51.8806 60.8638C51.6761 59.7019 53.3065 58.953 54.4912 59.6648C55.0513 60.0013 55.2487 60.633 54.9218 61.0429C54.6838 61.3413 54.483 61.1716 54.4286 60.6261C54.3947 60.2857 54.3313 60.1405 54.1234 59.9265C53.8989 59.6955 53.8037 59.6565 53.4642 59.6565C52.99 59.6565 52.6808 59.9005 52.6011 60.3378C52.5034 60.8735 52.8663 61.3601 53.9056 62.0872C54.9283 62.8027 55.3288 63.4397 55.2139 64.1682C55.0549 65.176 53.5347 65.7949 52.5057 65.2707ZM32.5284 65.2522C31.9812 65.0659 31.7333 64.8984 31.2881 64.414C29.6189 62.5979 29.8165 58.6918 31.6737 56.7885C32.208 56.2409 32.837 55.8941 33.5045 55.779C34.3141 55.6394 34.8218 55.7858 35.2982 56.2961C35.9485 56.9926 35.9914 58.585 35.3644 58.7469C34.999 58.8413 34.9768 58.7872 34.9669 57.7781C34.9559 56.6608 34.8411 56.3454 34.3723 56.1438C34.0289 55.9961 33.6792 56.0432 33.0952 56.3158C31.5474 57.0381 30.6277 59.765 31.07 62.3198C31.2952 63.6202 32.0446 64.7347 32.8425 64.9558C33.4076 65.1124 34.0576 65.0175 34.4097 64.7269C34.7641 64.4345 35.1741 63.7715 35.4057 63.116C35.6879 62.3177 35.829 62.0311 35.9399 62.0311C36.2196 62.0311 36.0953 63.0375 35.7227 63.789C35.4931 64.252 34.9629 64.8293 34.5243 65.0938C34.2304 65.271 34.04 65.3166 33.5075 65.3372C33.1142 65.3524 32.7228 65.3184 32.5284 65.2522Z" fill="black"/>
<path d="M61.3513 47.75C61.3419 47.7376 61.3306 47.7283 61.3691 47.714C61.403 47.7063 61.4505 47.7037 61.5138 47.7085C61.546 47.7107 61.5797 47.7112 61.6154 47.7154C61.6754 47.7209 61.7348 47.7261 61.7841 47.7341C61.8429 47.7437 61.8877 47.7486 61.9012 47.7587C61.9038 47.7614 61.9051 47.7666 61.8973 47.7693C61.8694 47.7789 61.8391 47.7833 61.8032 47.786C61.7441 47.7904 61.678 47.7906 61.6168 47.7917C61.4621 47.7943 61.3686 47.7676 61.3513 47.75Z" fill="white"/>
<path d="M70.4122 43.9497C70.5273 44.0757 70.6018 44.1643 70.7582 44.3282C70.7741 44.3396 70.7878 44.3418 70.7962 44.3226C70.7561 44.2403 70.681 44.1637 70.6056 44.0941L70.4122 43.9497Z" fill="white"/>
<path d="M67.4031 44.6488C67.4066 44.6381 67.4122 44.6332 67.4231 44.6418C67.4485 44.6705 67.4702 44.698 67.502 44.7288C67.5808 44.7961 67.6545 44.8304 67.7336 44.873C67.7416 44.8836 67.7374 44.887 67.7306 44.8883C67.6545 44.9193 67.4372 44.8503 67.4031 44.6488Z" fill="white"/>
<path d="M68.7599 43.4575C68.7467 43.4484 68.7471 43.4347 68.7561 43.4268C68.833 43.3945 68.9687 43.4185 69.048 43.4398C69.0987 43.4558 69.1281 43.4897 69.116 43.5072C69.1164 43.5198 69.0972 43.5135 69.0882 43.5136C69.0149 43.4929 68.9799 43.4845 68.9175 43.479C68.8653 43.4729 68.8134 43.4679 68.7599 43.4575Z" fill="white"/>
<path d="M60.4787 45.8868C60.4895 45.9069 60.5041 45.9246 60.5185 45.9446C60.5472 45.9867 60.5744 46.0186 60.5998 46.0424C60.6742 46.1121 60.7116 46.1234 60.7278 46.1255C60.7579 46.1314 60.7747 46.1242 60.7917 46.1198C60.798 46.113 60.8 46.1113 60.7855 46.1015C60.6916 46.027 60.592 45.9578 60.4909 45.8831C60.4859 45.8826 60.4755 45.8768 60.4787 45.8868Z" fill="#FCFCFC"/>
<path d="M67.0937 38.7629C67.1521 38.8035 67.8981 39.1326 67.9578 39.1981C67.9643 39.2102 68.0393 39.267 68.0408 39.2595C68.0666 39.2661 68.0911 39.2697 68.1011 39.2375C68.1159 39.215 68.1126 39.1938 68.0853 39.1742C67.7736 38.9231 67.3533 38.7724 67.0937 38.7629Z" fill="#FCFCFC"/>
<path d="M66.6457 38.6633C66.6604 38.6576 66.7119 38.6494 66.7654 38.6601C66.7913 38.6653 66.8211 38.6718 66.8398 38.6881C66.8622 38.7228 66.8169 38.7301 66.7475 38.7346C66.674 38.731 66.5566 38.7041 66.6457 38.6633Z" fill="#FCFCFC"/>
<path d="M68.4278 39.4454L68.8748 39.9541C68.9086 39.9977 68.9428 40.0442 68.9742 40.0671C69.0007 40.074 69.0067 40.0599 69.0141 40.0473C68.9015 39.8272 68.6394 39.6315 68.4278 39.4454Z" fill="#FCFCFC"/>
<path d="M64.7777 54.1121C62.5754 54.0914 62.3237 54.0751 62.2158 53.9466C62.15 53.8682 61.7166 52.5294 61.2527 50.9714C60.2218 47.5089 60.2665 47.6872 60.429 47.6872C60.4996 47.6872 60.5574 47.6317 60.5574 47.564C60.5574 47.413 60.4915 47.4125 61.9936 47.576C63.5443 47.7448 67.963 47.7805 68.5841 47.6292C70.0888 47.4118 71.3227 46.0535 70.5113 44.5836C70.3865 44.3894 70.1478 44.1664 69.9582 44.0669C69.6589 43.9097 69.616 43.9051 69.5394 44.0213C69.1107 44.6602 68.544 45.3024 67.8243 45.184C67.2399 45.0824 66.9557 44.6437 67.022 44.1934C67.069 43.8746 67.5171 43.497 67.8982 43.3661C68.1764 43.2706 68.9859 43.2354 69.3308 43.2922C70.1169 41.0367 67.781 38.8781 66.6303 38.9318C66.6568 40.1792 66.7501 41.235 65.8755 42.0839C65.314 42.6165 64.8686 42.7495 62.5423 43.0796C61.687 43.201 61.0176 43.4122 60.6395 43.8764C60.122 44.4576 60.1431 45.5057 60.824 45.8648C61.0331 45.9703 61.1178 46.129 60.962 46.129C60.9181 46.129 60.8856 46.1711 60.8966 46.2249C60.9346 46.4111 60.6248 46.3868 60.3208 46.1798C59.712 45.7652 59.5814 44.7549 60.0469 44.0613C60.3679 43.5831 61.1148 43.0395 61.7113 42.8498C61.9865 42.7624 62.7102 42.6306 63.3195 42.5569C65.1047 42.3412 65.6543 42.0958 66.0134 41.3544C66.1843 41.0015 66.2224 40.8084 66.2214 40.302C66.221 39.9609 66.1706 39.4649 66.11 39.1998C66.0058 38.7442 65.9544 38.52 66.0974 38.4815C66.1801 38.4586 66.1652 38.4564 66.2283 38.4496C66.3198 38.4396 66.3789 38.4105 66.6815 38.4555C68.4014 38.7118 69.7154 40.1135 69.8802 41.8677C69.9156 42.2446 69.9166 42.7014 69.8824 42.8827C69.79 43.3722 69.7914 43.3765 70.0832 43.5197C71.1158 44.0382 71.3829 45.1408 71.0255 46.1271C70.6808 47.0326 69.9193 47.6733 68.8158 47.9864C67.8142 48.2705 64.1557 48.2817 61.8181 48.0078C61.3924 47.9579 61.0135 47.93 60.9761 47.9458C60.8968 47.9794 62.4954 53.3885 62.6363 53.5632C62.716 53.662 63.257 53.681 65.993 53.681C67.7869 53.681 69.2537 53.6532 69.2525 53.6194C69.2512 53.5855 69.4207 52.453 69.629 51.1027C69.9515 49.0124 70.0289 48.642 70.1499 48.6094C70.228 48.5884 70.292 48.5127 70.292 48.4412C70.292 48.3478 70.3163 48.3363 70.3784 48.4002C70.4913 48.5163 69.7798 53.2708 69.5883 53.6803C69.3882 54.1081 69.1867 54.1738 68.1376 54.1531C67.6329 54.1432 66.1209 54.1247 64.7777 54.1121ZM61.8758 47.7504C61.799 47.7297 61.452 47.692 61.3752 47.7126C61.2984 47.7333 61.3616 47.7799 61.5149 47.7887C61.7542 47.8025 61.9841 47.7761 61.8758 47.7504ZM60.7901 46.1039C60.7718 46.0911 60.685 46.0265 60.5973 45.9602C60.4496 45.8488 60.4459 45.8505 60.5472 45.9835C60.6074 46.0625 60.6942 46.1272 60.74 46.1272C60.7858 46.1272 60.8084 46.1167 60.7901 46.1039ZM67.732 44.8723C67.7137 44.8595 67.6209 44.8201 67.5331 44.7538C67.4643 44.7019 67.4278 44.64 67.4127 44.6371C67.3954 44.6336 67.4084 44.7104 67.4626 44.7814C67.5228 44.8604 67.636 44.8956 67.6819 44.8956C67.7277 44.8956 67.7502 44.8851 67.732 44.8723ZM69.2546 43.8217C69.2546 43.7259 68.4194 43.6375 68.099 43.6993C67.945 43.729 67.6952 43.8148 67.6021 43.9453C67.4531 44.1543 67.4696 44.1876 67.4815 44.3546C67.4908 44.4856 67.6347 44.6108 67.7338 44.6518C68.3297 44.8569 68.9423 44.5441 69.2546 43.8217ZM70.7923 44.3156C70.7923 44.3 70.7033 44.1799 70.6046 44.0939L70.4116 43.9513L70.5774 44.1317C70.7293 44.2969 70.7923 44.3813 70.7923 44.3156ZM69.0734 43.4501C69.0425 43.4274 68.7968 43.3926 68.7541 43.4302C68.752 43.4378 68.7495 43.4547 68.767 43.4586C68.8754 43.4777 68.9681 43.4765 69.0802 43.5109C69.1072 43.5182 69.1205 43.5166 69.1167 43.4998C69.1103 43.4696 69.0878 43.4599 69.0734 43.4501ZM69.0041 40.0548C69.0157 40.0363 68.9001 39.8589 68.7281 39.7082L68.4168 39.4354L68.6918 39.7433C68.9469 40.0296 68.9785 40.1088 69.0041 40.0548ZM68.0861 39.1735C68.0843 39.1654 67.5898 38.784 67.0864 38.7602C67.3608 38.9073 67.6494 39.0006 67.9606 39.1997C68.0183 39.2591 68.0986 39.2917 68.0986 39.2336L68.0861 39.1735ZM66.8393 38.6879C66.8128 38.6607 66.6976 38.6418 66.64 38.6655C66.5763 38.6917 66.6417 38.7271 66.7346 38.731C66.8187 38.7346 66.8658 38.7152 66.8393 38.6879ZM64.3503 52.7572C64.3327 52.7008 64.1683 51.9843 63.985 51.1651L63.6519 49.6756L63.8647 49.504C63.9678 49.4209 64.0599 49.331 64.0928 49.3312C64.1257 49.3314 64.2721 50.0596 64.4725 50.9513C64.748 52.1769 64.8163 52.6076 64.7525 52.7162C64.6551 52.8821 64.3975 52.9084 64.3503 52.7572ZM66.8646 52.3056C66.8667 52.2266 66.9487 51.5526 67.047 50.8078C67.1954 49.6836 67.249 49.4489 67.3625 49.4264C67.4377 49.4115 67.4992 49.3466 67.4992 49.2822C67.4992 49.2178 67.5351 49.1651 67.579 49.1651C67.6229 49.1651 67.659 49.2667 67.6593 49.3909C67.6601 49.8084 67.3298 52.078 67.241 52.2646C67.1362 52.4849 66.8592 52.5151 66.8646 52.3056Z" fill="black"/>
<path d="M35.1527 0.00643921L35.0716 1.54447L35.0501 1.96417C27.7246 2.00752 21.5171 4.98266 15.054 8.04894C20.7048 4.12432 27.0583 0.852528 35.1672 0.0420415L35.1527 0.00643921Z" fill="#FFACAE"/>
<path d="M75.4315 28.4996L74.0244 29.2259L73.6581 29.3681C76.6339 36.1291 76.1274 43.1014 75.4108 50.5562C77.0592 43.8453 77.708 36.8263 75.4315 28.4996Z" fill="#FFACAE"/>
<path d="M47.6815 20.2434C52.4299 23.7619 52.3685 23.7856 52.3685 23.7856L47.6815 20.2434Z" fill="#F0FAFA" fill-opacity="0.900328"/>
<path d="M35.1648 0.0988464C34.5175 7.22866 36.1705 12.8512 42.9921 14.6056C41.0552 25.3154 53.6599 29.8465 58.7042 26.1994C63.5348 32.5479 69.6877 33.579 75.4923 28.5784C69.2385 28.2203 62.5463 25.1495 59.2252 20.7711C52.9619 19.9467 48.2187 15.3956 45.0422 10.2831C38.1574 7.48426 37.093 3.42267 35.1648 0.0988464Z" fill="#FFACAE"/>
<path d="M38.7456 9.65122C39.5066 12.7444 42.7959 12.3607 43.6952 14.3256C44.787 16.711 46.3155 21.0563 48.3553 22.6523C51.0591 24.7677 54.1384 25.0826 58.3413 25.0983C61.5885 25.1105 64.9339 31.2846 65.4039 28.9182C65.7159 27.3475 61.3931 24.9191 59.1807 23.3894C55.2396 20.6644 49.8718 18.9938 46.8791 15.3643C44.5962 12.5956 38.1981 7.42589 38.7456 9.65122Z" fill="#FFCECF" stroke="#FFCECF" stroke-width="3.50362" stroke-miterlimit="1.8" stroke-linecap="square"/>
<path d="M35.1617 0.371826C34.3612 11.4213 38.8307 12.9634 42.9724 14.6013C42.5136 25.0031 51.0317 29.0617 58.241 26.5072C58.377 26.459 58.5488 26.2629 58.6838 26.21C58.7246 26.194 58.7419 26.316 58.7826 26.2996C63.2397 32.2245 68.853 32.8439 74.5814 29.5624C65.6904 33.6621 64.4585 27.247 59.5074 25.891C55.1748 25.7824 46.2832 28.1275 43.0342 14.1955C39.1868 10.8496 34.5612 8.72774 35.1617 0.371826Z" fill="#D74343" fill-opacity="0.168627"/>
<path d="M59.0581 20.9374L58.841 22.4117C61.1717 24.3407 63.5271 26.1408 66.0483 27.0777C62.6921 25.0476 60.8056 22.9025 59.0581 20.9374Z" fill="#D74343" fill-opacity="0.168627"/>
<path d="M45.1935 10.6143L45.1555 12.8143C47.311 14.9848 48.6465 16.486 51.1297 17.4358C48.0671 15.139 46.2218 12.7657 45.1935 10.6143Z" fill="#D74343" fill-opacity="0.168627"/>
<path d="M35.2797 0.868439C35.2797 0.868439 36.068 4.08488 37.0348 5.35245C37.5313 6.00348 38.9945 6.80073 38.9945 6.80073C37.3726 5.34965 36.1928 2.77926 35.2797 0.868439Z" fill="#D74343" fill-opacity="0.168627"/>
<path d="M47.7216 17.9883C47.6028 17.3112 54.2269 20.5674 54.5726 21.8473C54.5897 22.7597 54.3181 22.3062 53.9381 22.0931C53.9094 21.1447 50.0382 18.9017 47.7216 17.9883Z" fill="white"/>
<path d="M39.3823 9.84792C39.3764 9.84836 39.3729 9.85046 39.3718 9.85437C39.3901 9.85125 39.4328 9.87301 39.4945 9.91447C39.5098 9.9125 39.5256 9.91097 39.5415 9.90976C39.4598 9.86839 39.4043 9.84625 39.3823 9.84792Z" fill="#F0FAFA" fill-opacity="0.900328"/>
<path d="M62.2278 25.6224C62.4095 25.6218 64.5288 28.869 65.0959 28.4964C65.6866 28.1083 62.3085 25.4743 62.2278 25.6224Z" fill="#F0FAFA" fill-opacity="0.900328"/>
<path d="M6.25565 40.0283C6.76498 61.6189 26.4747 77.3453 47.9063 70.9243" stroke="black" stroke-width="5.39339" stroke-miterlimit="1.8" stroke-linecap="square"/>
<path d="M60.3429 28.0172C60.8018 28.5325 61.3316 28.9716 61.9054 29.3634L6.17471 41.6038L5.96683 39.6781C22.7316 36.3038 42.1767 31.9592 60.3429 28.0172Z" fill="black"/>
<g opacity="0.9">
<path opacity="0.75" d="M45.8806 30.9441L26.9658 35.0103C26.9909 32.7749 28.2895 30.9064 29.2689 29.881C30.9888 27.9685 35.5984 25.493 41.3335 27.3923C42.8919 27.9521 45.6309 30.1635 45.8806 30.9441Z" fill="#784421"/>
</g>
<path d="M33.3015 32.5995C33.4491 32.5995 33.5687 32.4495 33.5687 32.2645C33.5687 32.0794 33.4491 31.9294 33.3015 31.9294C33.154 31.9294 33.0344 32.0794 33.0344 32.2645C33.0344 32.4495 33.154 32.5995 33.3015 32.5995Z" fill="#64534A"/>
<path d="M29.8397 32.2614C30.0057 32.2614 30.1402 32.1304 30.1402 31.9687C30.1402 31.8071 30.0057 31.676 29.8397 31.676C29.6737 31.676 29.5391 31.8071 29.5391 31.9687C29.5391 32.1304 29.6737 32.2614 29.8397 32.2614Z" fill="#64534A"/>
<path opacity="0.964487" d="M36.2618 26.7445C37.781 26.7429 39.4776 26.8187 41.075 27.4598C42.7074 28.1149 44.0067 28.677 45.8464 30.9392L46.9064 30.7448C45.5017 28.9885 43.4536 27.6731 40.7746 27.0845C38.4257 26.4852 37.1999 26.6596 36.2618 26.7445Z" fill="#64534A"/>
<path d="M34.6892 28.6778C34.8327 28.6778 34.949 28.5346 34.949 28.3578C34.949 28.1811 34.8327 28.0378 34.6892 28.0378C34.5458 28.0378 34.4295 28.1811 34.4295 28.3578C34.4295 28.5346 34.5458 28.6778 34.6892 28.6778Z" fill="#64534A"/>
<path d="M34.0362 29.64C34.1141 29.64 34.1772 29.5582 34.1772 29.4574C34.1772 29.3566 34.1141 29.2749 34.0362 29.2749C33.9583 29.2749 33.8952 29.3566 33.8952 29.4574C33.8952 29.5582 33.9583 29.64 34.0362 29.64Z" fill="#64534A"/>
<path d="M31.6133 31.938C31.726 31.938 31.8174 31.8534 31.8174 31.749C31.8174 31.6446 31.726 31.56 31.6133 31.56C31.5006 31.56 31.4092 31.6446 31.4092 31.749C31.4092 31.8534 31.5006 31.938 31.6133 31.938Z" fill="#64534A"/>
<path d="M36.7931 29.3866C37.0288 29.3866 37.2198 29.2039 37.2198 28.9785C37.2198 28.7531 37.0288 28.5704 36.7931 28.5704C36.5574 28.5704 36.3664 28.7531 36.3664 28.9785C36.3664 29.2039 36.5574 29.3866 36.7931 29.3866Z" fill="#64534A"/>
<path d="M37.1122 32.3547C37.2905 32.3547 37.435 32.2277 37.435 32.0712C37.435 31.9146 37.2905 31.7877 37.1122 31.7877C36.9339 31.7877 36.7894 31.9146 36.7894 32.0712C36.7894 32.2277 36.9339 32.3547 37.1122 32.3547Z" fill="#64534A"/>
<path d="M39.3681 32.0798C39.5546 32.0798 39.7058 31.9413 39.7058 31.7705C39.7058 31.5997 39.5546 31.4612 39.3681 31.4612C39.1817 31.4612 39.0305 31.5997 39.0305 31.7705C39.0305 31.9413 39.1817 32.0798 39.3681 32.0798Z" fill="#64534A"/>
<path d="M41.2456 30.0609C41.4321 30.0609 41.5833 29.8975 41.5833 29.6958C41.5833 29.4942 41.4321 29.3307 41.2456 29.3307C41.0592 29.3307 40.908 29.4942 40.908 29.6958C40.908 29.8975 41.0592 30.0609 41.2456 30.0609Z" fill="#64534A"/>
<path d="M39.728 28.7294C39.8141 28.7294 39.8839 28.6582 39.8839 28.5704C39.8839 28.4827 39.8141 28.4115 39.728 28.4115C39.642 28.4115 39.5722 28.4827 39.5722 28.5704C39.5722 28.6582 39.642 28.7294 39.728 28.7294Z" fill="#64534A"/>
<path d="M44.2994 30.8899C44.4059 30.8899 44.4923 30.8034 44.4923 30.6966C44.4923 30.5899 44.4059 30.5034 44.2994 30.5034C44.1928 30.5034 44.1064 30.5899 44.1064 30.6966C44.1064 30.8034 44.1928 30.8899 44.2994 30.8899Z" fill="#64534A"/>
<path opacity="0.659" d="M16.7717 36.0357C16.3001 36.3992 16.1628 36.4698 16.0464 36.529C15.7127 36.6988 15.4864 36.8893 15.0044 37.0846C13.3553 36.4428 11.1811 34.6357 11.2916 34.7074C11.3697 34.6783 12.458 35.0929 13.4489 35.3193C13.7342 35.4287 14.1737 35.447 14.4629 35.4296C14.7203 35.3857 14.4567 35.2993 14.453 35.2981C12.2848 34.616 11.277 33.9151 11.0838 33.6537C11.0919 33.5222 11.739 33.3602 12.1477 33.2937C12.3835 33.2554 12.5174 33.2109 12.5901 33.1632C12.6996 33.0913 12.5905 33.0355 12.5495 33.0258C11.8741 32.9986 12.1566 33.0354 12.0409 33.0184C13.1575 32.6736 14.6865 32.3952 15.9355 32.2555C16.3914 32.6976 16.9119 33.1602 17.2198 33.5744C17.2027 33.5474 16.9712 33.5482 16.8668 33.5054C15.9989 33.4321 15.0386 33.4692 15.2172 33.5978C15.3192 33.6897 16.3757 33.7291 17.332 33.9887C17.9648 34.1605 18.4049 34.4292 19.0763 34.7686C18.8655 34.9633 14.8928 34.2669 13.8622 34.1753C13.4956 34.1241 13.5804 34.2412 13.7791 34.315C14.462 34.5076 16.8492 34.9814 17.5502 35.1752C17.7799 35.1584 17.9428 35.1646 17.9291 35.1862C17.924 35.2446 17.6486 35.3579 17.4281 35.3905C17.1658 35.4417 16.9524 35.5451 16.7794 35.641C16.4332 35.755 16.0866 35.622 15.7931 35.7056C15.7714 35.7404 15.774 35.7727 15.8197 35.7926C16.0932 35.9115 16.5218 35.9385 16.7717 36.0357Z" fill="#FFC893"/>
<path opacity="0.659" d="M26.2738 33.9497C25.0196 34.4359 23.9858 34.7312 22.8865 34.8788C22.1314 34.8527 21.3577 34.8265 20.6146 34.7468C19.0968 34.3964 17.5209 33.4005 15.608 31.0304C15.596 31.0156 15.5699 30.9714 15.5579 30.9565C16.2855 31.2844 17.1803 31.5823 18.4955 31.8152C18.6859 31.8489 18.7176 31.758 18.5292 31.6649C16.875 31.0723 15.1935 30.3653 14.4263 29.5005C14.9559 29.67 15.6124 29.8902 16.3095 30.0387C16.413 30.0527 16.4709 29.9874 16.3535 29.8874C15.7076 29.5737 15.0194 29.2643 14.5276 28.8911C15.3522 28.9804 16.2643 29.0228 17.4348 29.4586C17.4514 29.4426 17.5438 29.4367 17.4928 29.3343C16.7943 28.9128 15.1536 28.3618 14.0627 28.0837C14.0811 28.0704 14.627 28.1436 16.2334 28.3251C16.6436 28.3748 18.5438 28.5783 20.215 28.8189C21.0572 28.9081 21.2608 28.8744 21.7841 29.0544C22.0969 29.143 22.1898 29.2722 22.3207 29.2656C22.3446 29.2212 22.6916 29.4113 22.795 29.4811C22.8511 29.5267 23.4842 29.8219 24.0528 30.066C24.7844 30.3613 25.4707 30.5447 25.6497 30.7392C25.7891 30.7181 26.712 31.633 26.9432 32.2408C26.8051 32.1321 26.6724 32.0343 26.5343 31.9612C26.4194 31.9141 26.3533 31.9425 26.2566 31.9322C25.7903 31.7873 25.0966 31.4264 24.577 31.2526C24.4459 31.2088 24.4442 31.3395 24.5118 31.3466C24.5969 31.4229 24.6822 31.5065 24.7834 31.5706C25.4272 31.9777 25.7377 32.2093 26.149 32.5172C25.7833 32.4785 25.4465 32.4199 25.1497 32.3281C24.0643 31.9924 23.378 31.7405 22.388 31.4345C22.2622 31.4379 22.2212 31.4784 22.3932 31.6124C23.4497 32.0585 24.5538 32.7199 25.6388 33.1267C24.6916 33.1189 23.4643 32.9266 22.7407 32.6596C22.6004 32.6094 22.5675 32.6338 22.6935 32.7746C23.3312 33.1384 24.2116 33.5506 26.2738 33.9497Z" fill="#FFC893"/>
<path opacity="0.659" d="M19.7797 25.5499C21.5614 28.7701 24.625 30.1729 27.6875 30.3221C26.4546 29.9764 25.6392 29.5673 24.9612 29.074C24.7366 28.8611 24.9262 28.944 25.0499 28.9735C25.5338 29.1471 26.8751 29.7483 28.0041 29.6237C28.1256 29.6572 28.2587 29.7299 28.4672 29.7064C28.2418 29.4551 27.9553 29.3345 27.6658 29.1064C27.6788 29.0604 27.6437 29.0053 27.7381 28.9776C27.9959 29.0104 28.4046 29.0829 28.7584 29.141C28.0445 28.1476 27.1467 27.3591 26.2475 26.4729C26.2028 26.3867 26.0529 26.2159 26.2801 26.3127C27.1199 26.8904 27.8548 27.2869 28.7277 28.1536C28.6154 27.6816 26.9863 25.2974 24.8106 24.1087C23.4246 23.2911 22.6623 23.3307 20.3598 22.8754C20.0785 22.8198 19.7761 22.7726 19.4527 22.7106C20.4025 23.262 21.6373 23.9811 22.5534 24.6551C22.6351 24.817 22.4457 24.7103 22.32 24.6792C20.6575 23.8294 18.1776 22.7977 17.9964 22.808C18.2223 22.9718 18.4513 23.136 18.6762 23.3121C19.6504 24.0745 20.5139 24.8502 22.1572 25.8986C23.4029 26.6934 24.7784 27.5682 26.4899 28.3441C26.5632 28.3826 26.6099 28.4192 26.5206 28.4708C24.2963 28.1308 21.3054 26.5137 18.5521 23.8347L19.7797 25.5499Z" fill="#FFC893"/>
<path opacity="0.659" d="M23.159 35.6299C20.6457 36.2932 17.9287 36.8087 15.3458 37.3969C15.8834 37.1279 16.4671 36.9819 16.9414 36.6081C17.6027 36.1605 18.4723 35.8224 19.435 35.5972C21.3868 35.1794 22.8557 35.4745 23.1979 35.5837L23.159 35.6299Z" fill="#FFC148"/>
<path opacity="0.659" d="M15.1175 27.6066C14.613 27.0109 14.1144 26.2579 13.6882 25.6319C13.8896 25.7903 14.1105 25.9785 14.3309 26.143C15.1299 26.7394 16.0164 27.3275 16.7208 27.5548C16.8372 27.4646 16.5891 27.3486 16.6986 27.4084C16.4661 27.2956 15.872 26.8152 15.4267 26.472C14.3331 25.2973 13.6543 24.5311 13.8206 24.6388C14.4874 24.53 15.293 24.5938 16.2349 25.1821C16.3074 25.1917 16.319 25.1824 16.2854 25.1222C15.8399 24.8403 15.6137 24.5007 15.2802 24.4303C15.2185 24.4172 15.1945 24.3761 15.1945 24.3761C15.1945 24.3761 15.1569 24.2651 14.9958 24.3118C14.8631 24.3109 14.8271 24.2597 14.8517 24.2557C14.8999 24.2143 18.1882 24.7154 18.6472 24.9273C19.1561 25.5601 19.4687 26.1486 19.8812 26.7519C19.6155 26.5984 19.4347 26.453 19.0689 26.307C18.7251 26.1892 18.3937 26.0704 18.0429 25.9694C17.7688 25.8905 17.4906 25.7592 17.2626 25.6328C17.2626 25.6328 17.1175 25.5952 17.0516 25.5601C17.001 25.5331 16.9137 25.4561 16.9137 25.4561C16.7775 25.4451 16.8605 25.5119 16.8586 25.5486C17.1721 25.7741 16.9852 25.6455 17.8109 26.0329C19.5689 26.8575 20.7473 27.902 21.1345 28.5179C19.5781 27.8985 17.8806 26.8159 16.2912 25.9763C16.2225 25.9624 16.1261 25.926 16.2298 26.0902C17.0146 26.6489 17.9506 27.2997 18.6505 27.7797C18.8239 27.8987 18.9781 28.0072 19.0737 28.0868C18.7911 28.0836 18.5219 28.0422 18.2527 27.9917C17.1463 27.8543 16.1535 27.7324 15.1175 27.6066Z" fill="#FFC893"/>
<path opacity="0.659" d="M22.5976 22.7026L20.4013 22.3094C19.844 20.9248 19.3092 19.5208 19.0892 18.0434C19.6719 18.9245 20.2169 19.8775 20.9935 20.6538C21.0795 20.7103 21.1196 20.6812 21.1189 20.5872C20.4509 19.4706 19.7932 18.438 19.5164 17.0468C19.9588 17.2058 20.6104 17.5714 21.2057 17.8814C21.3176 17.9281 21.2882 17.8783 21.2991 17.8374C21.1539 17.6441 20.868 17.4361 20.8386 17.2198C22.0637 17.8345 23.1815 18.5075 24.1512 19.2743L24.4026 21.0744C23.8505 20.4447 23.4356 20.1096 23.0303 19.7953C22.8189 19.7053 22.8619 19.8122 22.9136 19.8867C23.5756 20.6992 24.3159 21.6335 24.7053 22.4301C24.7258 22.6778 24.8856 22.934 24.9641 23.2016C24.7821 23.0912 24.5978 22.8703 24.3611 22.6411C23.5329 21.8392 22.5264 20.5707 21.5385 19.4314C21.4076 19.3378 21.3761 19.3688 21.4527 19.5521C21.9076 20.2822 22.6201 21.347 23.8564 22.8447C23.6882 22.8245 23.0176 22.5049 22.6068 22.2333C22.4082 22.1021 22.217 21.9538 22.0079 21.863C21.9807 21.8228 21.8473 21.7911 21.9324 21.9421C22.0952 22.1917 22.2454 22.3569 22.5976 22.7026Z" fill="#FFC893"/>
<path opacity="0.658797" d="M24.7142 17.8765C24.6624 18.401 24.6558 19.8382 25.0423 21.5272C25.1001 22.0478 25.3822 22.6836 25.6542 23.3804C26.7192 25.1632 28.7664 26.6606 31.0673 27.2734C31.0676 27.2734 30.8361 27.078 30.5849 26.7555C29.8937 25.7999 29.7693 25.524 29.4907 25.126C29.2915 24.8415 29.0801 24.352 29.016 24.1143C29.0476 24.0758 28.9825 23.923 29.1643 24.0645C29.7893 25.133 30.427 25.6954 31.0883 26.2917C30.9152 26.0176 30.7856 25.7791 30.685 25.5576C30.2744 24.7353 29.9003 23.9926 29.5578 22.9328C29.5644 22.8516 29.5001 22.6896 29.6536 22.7921C29.847 23.1693 30.0659 23.57 30.279 23.9401C30.7246 24.7143 31.2661 25.4348 31.7816 26.1481C31.6721 25.2898 31.4457 24.7357 31.1906 24.0527C31.1212 23.8591 31.2662 23.9682 31.2814 24.0128C31.3632 24.1204 31.459 24.2296 31.5331 24.3383C32.0014 25.0255 32.3244 25.7363 32.5878 26.4823C32.7336 26.2473 32.6961 25.3114 32.6335 24.4585C32.1014 23.5452 31.8101 23.0728 31.1813 21.597C31.0722 21.2209 30.9654 21.0016 30.8043 20.8244C29.2766 18.9801 28.6652 18.3516 27.9159 17.5152C27.5989 17.1614 27.251 16.7702 26.7765 16.2394C26.3837 15.835 25.9043 15.3501 25.2892 14.7344C25.8291 15.4437 26.0769 15.6064 27.2382 17.8662C27.2801 18.0623 27.1543 17.9644 27.1378 17.9626C26.4023 17.1428 25.9048 16.3082 25.1755 15.6644C25.4292 16.326 25.6244 16.9735 25.9535 17.5935C25.9937 17.6616 25.9745 17.7518 25.8486 17.674C25.2379 17.2054 25.0722 16.6221 24.7477 15.9767C24.7551 16.0202 24.7124 16.023 24.7206 16.0667C25.0728 17.9347 26.1061 19.9179 26.5395 20.2094C26.5889 20.2849 26.6192 20.3337 26.502 20.3291C26.2039 20.1818 25.7953 19.7929 25.5773 19.4704C25.0353 18.6509 24.7059 17.8409 24.7142 17.8765Z" fill="#FFC893"/>
<path opacity="0.658797" d="M26.6418 12.6243C26.5373 13.3807 26.4215 14.1925 26.4425 14.9672C26.5124 15.1553 27.0445 15.7365 28.1768 16.9913C28.4485 17.3068 28.7486 17.6438 29.0867 17.9798C29.0681 17.8054 29.0203 17.6274 28.9715 17.4455C28.9273 17.2806 28.887 17.1104 28.8354 16.9395C28.7328 16.5226 28.6306 16.1144 28.5097 15.757C28.3873 15.4295 28.3096 15.1449 28.2526 14.8025C28.2718 14.6496 28.3376 14.7346 28.3595 14.7639C28.3988 14.8179 28.409 14.8756 28.429 14.9399C28.5207 15.2348 28.7072 15.6574 28.8795 16.0375C28.9433 16.2022 29.1331 16.6805 29.1331 16.6805C29.1092 16.6779 29.6778 18.084 29.9523 18.7254C30.1002 19.0337 30.2963 19.3203 30.5107 19.5551C30.5189 19.1878 30.4395 18.8065 30.384 18.4778C30.3502 18.2774 30.3134 18.1188 30.2785 17.964C30.0396 17.0106 29.7107 16.2944 29.5635 15.8022C29.5092 15.6488 29.6694 15.6298 29.7963 15.7644C29.8971 15.9998 29.9144 16.0765 29.9796 16.187C30.0311 16.2869 30.0653 16.4467 30.6341 17.5215L30.8554 15.4423C30.7475 15.2559 30.793 15.306 30.5333 14.9476C30.42 14.8918 30.3815 14.8261 30.2521 14.6271C29.6573 13.8264 29.0789 13.1634 28.4889 12.5147C28.5283 12.6302 28.5385 12.7168 28.6202 12.9541C28.6513 13.0443 28.6494 13.1407 28.668 13.2425C28.6207 13.3557 28.5895 13.3051 28.5468 13.2895C28.1128 12.6838 27.7113 12.1836 27.3069 11.9342C27.3026 12.5051 27.291 13.0483 27.3192 13.5584C27.3676 14.4341 27.4822 14.9439 27.6549 15.8496C27.7135 16.0105 27.6364 16.017 27.5679 15.9281C27.4153 15.6293 27.2571 15.3053 27.1304 14.8299C26.9854 14.2853 26.7816 13.6745 26.6558 12.6435L26.6418 12.6243Z" fill="#FFC893"/>
<path opacity="0.658797" d="M31.4513 14.6482L31.16 18.0063C31.1922 20.1811 31.6175 21.3725 32.1061 22.4168C32.3286 22.917 32.5523 23.2032 33.2522 24.2213C33.4677 24.5348 33.7781 24.9251 34.1558 25.3571C33.8401 24.653 33.5612 24.1396 33.2712 23.5456C33.2067 23.3921 33.0766 23.0174 33.0704 22.7561C33.0548 22.6516 33.1048 22.659 33.1662 22.6995C33.3516 22.9991 33.4595 23.2671 33.7325 23.6451C33.97 24.1244 34.2626 24.3402 34.5305 24.6468C34.7559 24.9048 34.9889 25.1457 35.2792 25.4084L35.2069 24.6304C35.1991 24.4615 35.264 24.4209 35.3769 24.5006C35.4492 24.5908 35.4998 24.7257 35.585 24.8377C35.6174 24.9074 35.6695 24.9257 35.7206 24.9466L35.7568 25.1498C35.7952 25.2354 35.9412 25.321 35.9449 25.244C35.9632 24.8707 35.9307 24.2773 35.8905 23.6489C35.8434 22.5595 35.6622 21.538 35.6989 21.5561C35.6683 21.4517 35.743 21.4464 35.8273 21.5718C35.9992 22.1296 36.1854 22.5427 36.4822 23.9769C36.4857 24.0915 36.5132 24.2192 36.5564 24.3582C36.7845 23.3073 36.7734 22.4402 36.7084 21.4901C36.4131 19.4426 35.9838 18.3818 35.234 17.1896C34.8165 16.6118 34.3847 16.0738 33.9383 15.577C33.5522 15.174 33.2031 14.7103 32.8424 14.1917C33.269 15.3715 33.6325 16.3572 33.9839 17.7404C33.9568 17.7977 33.9958 17.9482 33.841 17.7979C33.6381 17.2641 33.4225 16.8014 33.2064 16.3583C32.8698 15.6331 32.5932 14.9125 32.2357 14.3241C32.0422 14.0054 31.8955 13.6303 31.7099 13.2472C31.9772 14.8179 32.3193 16.2824 32.697 17.6626C33.12 19.2077 33.593 20.6218 34.1894 22.017C34.364 22.4256 34.5296 22.8314 34.7057 23.2262C34.7633 23.453 34.6508 23.3916 34.5791 23.3592C34.3426 23.0069 34.1275 22.6424 33.8894 22.2754C33.3758 21.4434 32.9752 20.541 32.6506 19.6822C32.2361 18.5685 31.9239 17.3984 31.6698 16.1465C31.6253 15.9275 31.5929 15.7323 31.5738 15.5033C31.5495 15.211 31.5055 14.8991 31.4513 14.6482Z" fill="#FFC893"/>
<path opacity="0.658797" d="M35.2242 16.2286C34.7774 15.6914 34.2955 15.1339 33.8837 14.6171C33.8445 14.5072 33.8326 14.4142 33.8656 14.349C34.338 12.8784 34.901 11.5728 35.4974 10.3092L35.302 11.7082C35.2584 12.5108 35.2809 13.3077 35.2894 14.0966C35.3063 14.1227 35.3163 14.1649 35.3653 14.1165C35.6102 12.2891 35.8422 11.5081 36.0258 10.9336C36.1417 10.5521 36.2441 10.2345 36.3911 9.96783C36.5561 10.1586 36.6734 10.3919 36.7715 10.6382C36.9501 11.0014 37.0621 11.3319 37.1111 11.5825C37.1345 11.7387 37.2164 11.767 37.3065 11.7773C37.3077 11.5555 37.3309 11.291 37.3099 11.1134L37.3605 11.1888C37.4245 11.3312 37.4937 11.4639 37.5439 11.5999C37.7883 12.263 38.0148 12.814 38.2638 13.5454C38.3776 13.8799 38.4934 14.2271 38.6016 14.6673L38.3696 15.0292C38.1826 15.2779 37.9989 15.5331 37.8451 15.8478L37.6138 16.2087C37.5654 16.1084 37.5734 15.9511 37.5596 15.8157C37.5142 15.3377 37.5716 15.0396 37.3425 14.2401C37.2663 14.189 37.2423 14.2243 37.2122 14.2506C37.1953 14.5024 37.1915 14.7554 37.2166 15.0149C37.2562 15.4247 37.2227 15.8388 37.2014 16.2547C37.1632 16.998 36.9524 17.6996 36.7021 18.3633C36.5432 16.552 36.5086 14.7048 36.4126 12.8753C36.3853 12.8238 36.37 12.8384 36.333 12.8649L36.3286 12.9399C36.1681 14.0253 36.1777 15.0998 36.1379 16.1775L36.0761 17.2272C35.788 16.6395 35.73 16.4806 35.57 16.0303C35.4548 15.8296 35.4031 15.6392 35.3525 15.4429C35.3353 15.3229 35.3127 15.2095 35.3326 15.0439C35.2605 15.1655 35.1698 15.3327 35.168 15.3937C35.1553 15.5643 35.1749 15.7497 35.2168 15.9322C35.2058 16.036 35.226 16.1405 35.2242 16.2286Z" fill="#FFC893"/>
<path opacity="0.658797" d="M39.7726 14.0232C39.257 14.7146 38.7375 15.5485 38.4129 16.039C38.0158 16.6021 37.5095 17.616 37.4815 17.8424C37.4398 18.1567 36.8154 19.1074 37.2636 21.5832C37.6285 22.8997 37.9209 23.6216 38.1489 24.107C38.393 24.6263 38.614 25.0024 38.7594 25.1355L38.7971 25.1986C38.784 25.2594 38.8399 25.3232 38.887 25.3867C38.9053 24.6933 38.816 23.8656 38.9746 23.0519C39.0502 22.6635 39.0417 22.2848 39.1975 21.9509C39.2163 21.8145 39.285 21.7466 39.3343 21.6546C39.3685 21.6579 39.3885 21.6774 39.3985 21.7086C39.3799 21.8134 39.3527 21.8842 39.3708 22.0562C39.348 22.5823 39.3899 22.9778 39.3838 23.3388C39.3759 23.8097 39.3948 24.1474 39.486 24.5372C39.5563 24.3727 39.5799 24.1676 39.6245 23.9809C39.7789 23.2771 39.9321 22.5727 40.1428 21.8989L40.3625 21.139C40.4304 21.0106 40.4783 21.0878 40.5275 21.1515C40.5125 21.4911 40.4844 21.829 40.4073 22.1603C40.302 23.114 40.1635 24.1096 40.1338 24.968C40.4563 24.3894 40.6927 23.7924 40.9627 23.1669C41.0145 23.0892 41.04 23.2056 41.0422 23.2767C41.0037 24.2713 40.7628 25.0268 40.5708 25.8195C40.9222 25.4853 41.2735 25.16 41.6296 24.5623C41.7489 24.2939 41.9064 24.0351 41.9318 23.7435C42.1079 22.8312 42.0576 22.4107 42.6897 20.5445C42.6867 19.599 42.6603 18.6547 42.6266 17.7108C42.5873 16.6099 42.5146 15.5671 42.4814 14.4658L42.1035 14.3557C42.0893 14.6081 42.1128 14.4224 41.9968 14.9806C41.9559 15.2541 41.7885 15.563 41.6488 15.7424C41.5587 15.8029 41.5251 15.6906 41.5713 15.6045C41.6899 15.4027 41.7256 15.1613 41.7486 14.9308C41.7759 14.6569 41.7566 14.4458 41.6978 14.2141L41.2504 14.0191C41.1853 14.2451 41.078 14.483 40.9903 14.6947C40.9499 14.739 40.8681 14.8749 40.9012 14.5543C40.92 14.1887 40.9138 14.0968 40.8417 13.8483L40.4883 13.6894C40.0422 14.7708 39.8575 15.957 39.7214 17.1626C39.679 17.2954 39.6355 17.3587 39.5884 17.1893C39.5181 16.7669 39.5756 16.1392 39.6117 15.5499C39.6637 14.7013 39.8245 14.0132 39.7997 14.018L39.7726 14.0232Z" fill="#FFC893"/>
<path opacity="0.658797" d="M43.4697 20.462C42.9892 21.7495 42.6648 22.9684 42.4886 24.4462C42.4322 24.9784 42.4653 25.4212 42.5109 25.9196C42.6032 25.5624 42.6304 25.2271 42.6997 24.8939C42.8239 24.2581 42.9889 23.7398 43.1779 23.2854C43.2331 23.2519 43.2741 23.244 43.2852 23.3206C43.2376 23.807 43.1632 24.2678 43.1585 24.795C43.165 25.3666 43.1899 25.9301 43.2598 26.4871C43.2685 26.7376 43.3008 26.7115 43.325 26.7803C43.4749 26.5284 43.5718 26.162 43.7635 26.0481C43.816 26.0403 43.8738 26.0676 43.8805 26.1339C43.8578 26.3792 43.8377 26.626 43.7953 26.8599L43.8206 27.0421C44.0331 26.9388 44.4849 26.2724 44.8337 25.8484C45.2309 25.2586 45.6416 24.6901 45.8938 24.0468C45.365 23.5478 45.0609 23.1594 44.7319 22.7425C44.5879 23.0845 44.4537 23.4472 44.3883 23.8314C44.3322 24.1616 44.2821 24.4968 44.1828 24.6843C44.1494 24.7115 44.1159 24.795 44.0824 24.6929C44.063 23.7672 44.1442 23.0855 44.3453 22.1751C43.9512 21.5698 43.681 21.006 43.4697 20.462Z" fill="#FFC893"/>
<path opacity="0.658797" d="M47.7598 25.523C47.4215 25.7131 47.0755 25.8588 46.7493 26.098C46.2331 27.5548 46.1971 28.0012 46.0479 28.9766C46.9648 27.9203 47.8747 26.9175 48.7044 26.529C48.8996 26.5139 48.8055 26.6004 48.7913 26.6588C48.393 26.9846 48.1282 27.3031 47.9233 27.5613C47.3353 28.3022 47.1916 28.5294 47.075 28.8351C47.9267 28.0876 48.9792 27.3934 49.8448 26.8464C49.9931 26.754 50.003 26.8011 49.9968 26.8643C49.7904 27.1625 49.4493 27.4217 49.1563 27.6949C48.7875 28.0165 48.4335 28.3485 48.1257 28.7133L47.4203 29.4402L47.1962 29.631C47.6945 29.4516 48.1101 29.2244 48.5669 29.0211L49.0071 28.8033C49.0879 28.7913 49.1223 28.8183 49.1051 28.8964C48.577 29.3783 47.9699 29.8898 47.3958 30.2978C48.053 30.1782 48.7186 30.1259 49.3013 29.9011C49.5019 29.7705 49.666 29.6127 49.8235 29.4522C50.4476 28.8926 51.1166 28.4541 51.8879 27.949C52.1253 27.7387 52.3407 27.5261 52.5035 27.308C50.9612 27.0059 50.2316 26.7263 49.7161 26.5195C48.7868 26.1467 48.2794 25.8276 47.7598 25.523Z" fill="#FFC893"/>
<path opacity="0.658797" d="M50.3583 29.7458C51.4281 28.6242 53.901 27.5381 55.141 27.51C55.3325 27.5226 55.4007 27.5443 55.5042 27.6377C55.5469 27.6687 55.5764 27.6959 55.6476 27.7262C55.6904 27.7286 55.6921 27.7045 55.6937 27.6715C55.6802 27.6445 55.6614 27.6189 55.6394 27.594C55.604 27.5646 55.5851 27.531 55.5693 27.5003C55.6117 27.4775 55.955 27.4595 56.3378 27.4342C56.5035 27.4312 56.6755 27.4152 56.8422 27.408C57.0606 27.3986 57.2057 27.3942 57.4281 27.3613C57.4954 27.3562 57.6137 27.3286 57.6312 27.3047C57.6611 27.2641 58.1752 27.1277 58.1775 27.1563C58.0077 27.23 57.8487 27.2988 57.6898 27.3829C57.6028 27.4289 57.5221 27.4983 57.4268 27.532C57.3456 27.5626 57.2722 27.5758 57.1993 27.588C56.6853 27.7547 55.9306 28.1322 55.1463 28.4654C54.9684 28.5334 54.5563 28.7445 54.4115 28.8265C54.2298 28.9071 54.0585 28.9979 53.8498 29.0526C53.4865 29.1899 53.2028 29.2263 52.8729 29.2699C52.0377 29.4193 51.2133 29.5356 50.3583 29.7458Z" fill="#FFC893"/>
<path opacity="0.658797" d="M59.5179 27.1989L59.5793 27.2824C59.3752 27.4391 59.1739 27.5594 58.9441 27.7161C58.7545 27.8333 58.5662 27.9417 58.3793 28.0428C58.2737 28.0824 58.1674 28.1245 58.0664 28.1617L58.0782 28.2084L56.9108 28.4308L56.9338 28.3789C57.1392 28.2723 57.3686 28.1785 57.6026 28.0871C58.3591 27.8079 58.9651 27.533 59.5139 27.2608L59.5179 27.1989Z" fill="#FFC893"/>
<path d="M36.1012 8.98591C35.8603 9.02646 35.6597 9.12659 35.5368 9.27507C35.1388 9.75557 34.2121 11.7819 33.7183 13.2518C33.5756 13.6765 33.4507 14.0348 33.4406 14.048C33.3999 14.1014 33.208 13.8567 32.5809 12.9517C31.8891 11.9535 31.7104 11.7769 31.4067 11.7916C31.3061 11.7965 31.1886 11.8492 31.1123 11.9237C31.0008 12.0328 30.9821 12.1082 30.9582 12.5468C30.9433 12.8213 30.9318 13.4204 30.9324 13.8781L30.9337 14.7104L30.7465 14.4412C29.9245 13.2588 27.8523 11.1183 27.4056 10.9902C26.8505 10.8309 26.4322 11.1719 26.2492 11.9329C26.1569 12.3162 25.9406 14.0784 25.9528 14.3474C25.9571 14.4409 25.9494 14.5178 25.9353 14.5184C25.9214 14.5191 25.7657 14.4206 25.5894 14.2999C25.2737 14.0835 24.8722 13.941 24.6127 13.9536C24.394 13.9641 24.049 14.2007 23.9031 14.44C23.7415 14.7055 23.744 14.9562 23.9044 15.7183C23.9695 16.0227 24.0412 16.6742 24.0932 17.4311C24.1863 18.7854 24.2082 18.7062 23.8218 18.42C23.1885 17.9509 21.1904 16.8268 20.2453 16.4079C19.6777 16.1564 19.5556 16.1209 19.3085 16.135C19.003 16.1525 18.7985 16.2478 18.631 16.4514C18.4731 16.6431 18.4288 16.8385 18.4479 17.259C18.4796 17.9532 19.0235 20.0496 19.5564 21.5315C19.6834 21.8846 19.7783 22.1835 19.7672 22.196C19.7347 22.2328 18.9507 22.0574 18.1496 21.8339C17.1463 21.554 16.8608 21.5994 16.7468 22.0573C16.6891 22.2889 16.8086 22.545 17.1755 22.9766C17.3955 23.2355 17.9145 23.869 18.1978 24.2243C18.2657 24.3094 18.2594 24.3121 18.0981 24.2686C17.2325 24.0351 15.5947 23.8037 14.2563 23.7255C13.663 23.6908 13.413 23.7403 13.1083 23.9532C12.7672 24.1915 12.6769 24.8314 12.9232 25.2634C13.2256 25.7936 14.0314 27.0822 14.175 27.2654C14.2609 27.3749 14.332 27.4816 14.333 27.5022C14.3339 27.5229 14.1581 27.5643 13.9424 27.5943C13.1683 27.7022 12.7785 28.0431 12.7642 28.6253C12.7538 29.0456 12.8293 29.1822 13.272 29.5485C13.8247 30.0057 14.6975 30.8422 15.1613 31.3596C15.4916 31.728 15.5484 31.8146 15.4688 31.828C15.415 31.8371 15.0028 31.8858 14.5527 31.9364C13.4949 32.0552 12.5281 32.2568 11.57 32.5577C10.2142 32.9835 9.95943 33.1965 9.99052 33.8782C10.0087 34.278 10.0962 34.3977 10.8056 34.9919C11.554 35.6188 12.4719 36.25 13.525 36.8618C14.0061 37.1412 14.367 37.2909 14.3778 37.3373C14.3909 37.3929 14.3428 37.4444 14.237 37.4882C14.0955 37.5468 14.0675 37.5785 14.135 37.5826L14.1353 37.583C14.2032 37.587 14.3668 37.563 14.6087 37.5103C14.8674 37.454 15.1813 37.387 15.3062 37.3615C15.5148 37.319 16.5307 36.8907 16.8492 36.6382C17.2472 36.3225 18.3462 35.8499 19.217 35.6201C20.0318 35.405 21.4069 35.2859 22.1002 35.3702C23.1594 35.499 23.4084 35.5611 23.1505 35.6326C22.9192 35.6967 20.9243 36.1273 20.5534 36.2118C20.3476 36.2587 20.2038 36.3143 20.2429 36.3245C20.2778 36.3347 20.4413 36.3049 20.6129 36.2653C20.9982 36.1766 23.606 35.6686 25.6327 35.2333C26.0492 35.1438 26.5654 35.0729 26.9409 34.9916C27.2329 30.903 30.5646 27.9371 34.5176 27.0313C37.8125 26.1823 41.3278 26.7864 44.4414 28.5356C45.4396 29.1302 46.8329 30.6044 46.891 30.6927C47.8914 30.4752 49.2039 30.1326 49.5055 30.0645C49.9213 29.9704 50.7838 29.7884 51.422 29.6601C53.2613 29.2901 53.393 29.2611 53.3264 29.2415C53.258 29.2214 50.878 29.6388 50.5745 29.7241C50.1927 29.8314 50.3101 29.6942 51.1158 29.0918C51.9662 28.4561 53.0975 27.9366 54.2845 27.6364C55.0454 27.4439 55.3128 27.4357 55.4985 27.5991C55.6434 27.7266 55.7346 27.7327 55.6129 27.6067C55.5642 27.5563 55.5396 27.4977 55.5582 27.4766C55.5769 27.4555 56.02 27.4201 56.5428 27.398C57.2888 27.3664 57.5235 27.3396 57.6344 27.2736C57.7121 27.2274 57.9121 27.168 58.0789 27.1415L58.3821 27.093L58.0511 27.2368C57.8691 27.3158 57.6616 27.4242 57.5897 27.4778C57.5179 27.5313 57.3673 27.5875 57.2552 27.6028C57.1431 27.618 56.688 27.799 56.244 28.0046C55.8002 28.2103 55.3129 28.4262 55.1615 28.4845C55.1489 28.4893 55.1353 28.4947 55.121 28.5006C54.964 28.5654 54.7141 28.6884 54.5391 28.788C54.348 28.8967 54.0105 29.0374 53.7893 29.1007C53.382 29.2174 53.4015 29.2543 53.8173 29.154C53.9419 29.1239 54.3478 29.0342 54.7185 28.9547C56.1063 28.6569 56.9532 28.4335 56.9146 28.3756C56.9007 28.3546 57.1868 28.2232 57.5506 28.084C57.9144 27.9447 58.5127 27.6993 58.8799 27.5386C59.072 27.4545 59.3553 27.2961 59.4868 27.2464C59.4886 27.2274 59.4851 27.2227 59.489 27.2041C59.2754 26.9451 59.0241 26.6909 58.8543 26.4269C58.7147 26.489 57.7764 26.9385 58.1182 26.6301C56.324 27.3275 54.2905 27.5511 52.5767 27.3324C52.5608 27.3327 52.5449 27.3332 52.5291 27.3328C52.3856 27.4864 52.2401 27.6413 52.0815 27.8039C51.9863 27.8999 51.6629 28.1372 51.3629 28.3313C50.7535 28.7256 50.1538 29.1814 49.7868 29.5291C49.4279 29.869 49.2952 29.9557 49.0313 30.021C48.6177 30.1234 47.3896 30.3535 47.3674 30.3328C47.344 30.3108 47.3868 30.2754 47.9923 29.8176C48.3407 29.5541 48.5744 29.3503 49.0419 28.9018C49.1579 28.7906 49.0012 28.814 48.7847 28.9402C48.6524 29.0174 48.4317 29.1223 48.294 29.1734C48.1563 29.2245 47.866 29.3579 47.6489 29.4697C47.264 29.6678 47.0311 29.7015 47.2686 29.5247C47.3339 29.4761 47.4218 29.3993 47.4638 29.354C47.9011 28.8837 48.6505 28.1231 48.8733 27.9237C49.7622 27.1282 50.0675 26.8179 49.9565 26.8233C49.9272 26.8247 49.7801 26.9087 49.6293 27.0096C49.4785 27.1105 49.07 27.3814 48.7221 27.6115C48.092 28.0279 47.7077 28.3146 47.4758 28.542C47.4088 28.6078 47.2667 28.7212 47.1599 28.7942L46.9658 28.9268L47.1242 28.66C47.588 27.8792 48.2474 27.0568 48.6858 26.7122C48.8756 26.5631 48.8361 26.4998 48.6225 26.6107C48.0733 26.8961 47.4375 27.4469 46.7361 28.2453L46.0215 29.0587L46.0408 28.8342C46.1034 28.1043 46.43 26.8292 46.7443 26.0888C47.1198 25.8115 47.3883 25.7406 47.7502 25.4925C47.391 25.2983 47.0107 25.0666 46.7377 24.8156C46.6861 24.8926 46.6344 24.9697 46.5795 25.0481C46.1297 25.6812 45.2159 26.6374 44.8403 26.8683C44.7584 26.9187 44.7527 26.9133 44.7941 26.8237C44.8202 26.7675 44.8767 26.6883 44.9199 26.6477C45.0203 26.5535 45.2763 26.0458 45.6549 25.1898C45.881 24.6789 45.9702 24.4619 46.0408 24.2219C45.9923 24.1753 45.943 24.1428 45.9002 24.0916C45.8369 24.1951 45.7851 24.3796 45.6834 24.5564C45.4837 24.9033 45.2753 25.2507 45.2204 25.3281C45.1656 25.4055 45.0564 25.5628 44.9776 25.6776C44.7407 26.0229 44.0776 26.865 43.9578 26.9726C43.9139 27.0119 43.8786 27.0368 43.8516 27.0453C43.8414 27.0484 43.8327 27.0489 43.8247 27.0478C43.7693 27.0371 43.7661 26.9101 43.8052 26.6365C43.8344 26.4259 43.8562 26.2108 43.8538 26.1583C43.8461 25.9872 43.6794 26.0955 43.563 26.3472C43.3081 26.8986 43.3418 26.8531 43.274 26.7362C43.2377 26.6736 43.1923 26.2331 43.1594 25.623C43.1136 24.7739 43.1186 24.5099 43.1905 23.9637C43.2375 23.6064 43.2628 23.3024 43.2476 23.288C43.151 23.1975 42.7728 24.5139 42.6452 25.3841C42.5975 25.7095 42.5356 25.9769 42.5077 25.9782C42.4746 25.9798 42.4506 25.6382 42.4406 24.9992C42.4186 23.6765 43.0764 21.5906 43.4387 20.4571C42.4863 18.0676 42.8554 15.6943 42.9561 14.6337C42.8702 14.6044 42.6629 14.5287 42.5687 14.517C42.5579 14.5155 42.5092 14.4984 42.4985 14.4969C42.5232 15.0401 42.5499 15.5964 42.583 16.3864C42.7512 20.4064 42.7518 20.4411 42.6552 20.7317C42.3037 21.788 42.1132 22.5833 42.02 23.3821C41.9495 23.9868 41.7911 24.3999 41.4429 24.8876C41.2009 25.2266 40.6641 25.8085 40.5635 25.8477C40.5567 25.8502 40.5514 25.8505 40.5488 25.8479C40.5368 25.8366 40.5847 25.6149 40.6554 25.3551C40.8491 24.6435 40.9875 23.9187 41.0053 23.5227C41.0141 23.3278 41.0098 23.1689 40.9962 23.1696C40.9824 23.1703 40.8567 23.4524 40.7165 23.7966C40.5764 24.1407 40.3947 24.5443 40.3131 24.6935C40.1272 25.033 40.1402 25.015 40.1069 24.9839C40.0671 24.9465 40.2687 22.9424 40.3944 22.1244C40.5078 21.3871 40.5201 21.1381 40.4446 21.1004C40.4184 21.0872 40.3785 21.1482 40.356 21.2357C40.3334 21.3232 40.2191 21.7202 40.1021 22.1178C39.985 22.5154 39.8114 23.2193 39.7162 23.682C39.621 24.1447 39.5254 24.5446 39.5036 24.5706C39.4268 24.662 39.3613 23.9965 39.3452 22.9611C39.3365 22.3852 39.3402 21.8545 39.3536 21.7818C39.3776 21.653 39.3762 21.6519 39.3012 21.7573C39.0679 22.0843 38.8629 23.7252 38.91 24.8879C38.9293 25.3638 38.9224 25.4227 38.8529 25.3688C38.8094 25.335 38.7726 25.2785 38.771 25.2433C38.7692 25.2081 38.7163 25.1253 38.6532 25.0591C38.358 24.7491 37.5895 22.9506 37.3512 22.0124C37.0234 20.7215 36.989 19.6159 37.2437 18.5674C37.5414 17.3422 37.9003 16.6728 39.4849 14.3888C39.6754 14.1144 39.8324 13.9212 39.8337 13.96C39.835 13.9988 39.8099 14.1749 39.7779 14.3518C39.5877 15.3993 39.5081 17.2634 39.6535 17.2626C39.681 17.2624 39.7293 16.9835 39.7608 16.6425C39.843 15.7528 40.0662 14.7891 40.3971 13.8797C40.3812 13.8742 40.4881 13.6793 40.4724 13.6736C40.1668 13.5432 39.9277 13.4119 39.6518 13.2477C39.3672 13.6688 39.0312 14.2001 38.9809 14.2025C38.9307 14.2049 38.9067 14.135 38.8345 13.7794C38.7869 13.545 38.5086 12.7845 38.2808 12.1593C37.9645 11.9387 37.6257 11.5313 37.3962 11.2143C37.836 12.2167 38.6944 14.5531 38.6115 14.7113C38.5939 14.745 38.4721 14.9193 38.3409 15.0983C38.2097 15.2776 37.9979 15.612 37.8704 15.8415C37.7429 16.0709 37.6194 16.2596 37.5958 16.2607C37.5723 16.2618 37.5472 16.0451 37.5405 15.7788C37.5292 15.3295 37.3924 14.3771 37.3244 14.275C37.233 14.1377 37.2066 14.3793 37.238 15.067C37.2949 16.3157 37.1893 17.0641 36.8021 18.1523L36.691 18.4652L36.63 17.9223C36.5964 17.6239 36.5305 16.3514 36.4838 15.0956C36.4368 13.8397 36.3838 12.8294 36.3658 12.8509C36.3091 12.9188 36.1998 14.4266 36.1686 15.5699C36.1227 17.2505 36.1177 17.3118 36.0382 17.2103C36.0012 17.163 35.8874 16.9105 35.7854 16.6491C35.6833 16.3877 35.5381 16.0292 35.4624 15.8525C35.3867 15.6757 35.3197 15.4431 35.3138 15.3356L35.3031 15.1402L35.2345 15.2746C35.1818 15.3777 35.1775 15.5089 35.2171 15.8387C35.2453 16.0751 35.256 16.2689 35.2409 16.2696C35.2259 16.2703 35.0909 16.1179 34.941 15.9306C34.7913 15.7434 34.5111 15.409 34.319 15.1877C33.7816 14.569 33.7744 14.5527 33.8852 14.2082C33.9361 14.0501 34.0214 13.7831 34.0744 13.6148C34.2878 12.9384 35.467 10.1942 35.5221 10.2459C35.5347 10.2577 35.507 10.4786 35.4606 10.7371C35.4142 10.9956 35.3556 11.4439 35.3304 11.7333C35.2818 12.2938 35.2858 14.167 35.3322 14.1122C35.3482 14.0943 35.404 13.7615 35.4561 13.3727C35.5879 12.3888 35.7749 11.5735 36.0677 10.7065C36.2053 10.2987 36.3447 9.95435 36.3771 9.94163C36.4936 9.89731 37.1134 11.2202 37.1282 11.5449C37.1312 11.6081 37.1691 11.6872 37.2126 11.721C37.2802 11.7734 37.2915 11.7565 37.2892 11.6057C37.2845 11.2791 37.3176 11.2306 37.282 11.0978C36.8394 10.5274 36.3241 9.61915 36.1248 9.0195C36.1249 9.01791 36.1251 9.01649 36.1252 9.01493C36.1175 9.00504 36.1088 8.9959 36.1012 8.98591ZM27.3241 11.9255C27.4505 11.9382 28.0378 12.5424 28.3398 12.9807C28.6459 13.4249 28.7128 13.384 28.5559 12.8481C28.4464 12.474 28.454 12.3886 28.5821 12.5688C28.6272 12.6324 28.8462 12.8829 29.0689 13.1259C29.4755 13.5696 30.217 14.4971 30.3502 14.7283C30.3894 14.7964 30.4631 14.8795 30.5137 14.913C30.5643 14.9464 30.6684 15.0775 30.7452 15.2044L30.8847 15.4353L30.8136 16.1053C30.7745 16.4738 30.722 16.9648 30.6969 17.1966L30.6514 17.6181L30.3997 17.1323C30.1846 16.7173 30.0256 16.3771 29.7831 15.8131C29.7344 15.7001 29.5765 15.6554 29.5811 15.756C29.5824 15.784 29.726 16.1956 29.9003 16.6706C30.0747 17.1455 30.275 17.8026 30.3453 18.1306C30.4785 18.752 30.5783 19.5864 30.5199 19.5892C30.4711 19.5915 30.1789 19.1997 30.0296 18.9318C29.9064 18.7106 29.3748 17.4182 29.0786 16.6198C28.9999 16.4075 28.8246 15.9798 28.6892 15.6694C28.5538 15.3589 28.4238 15.0296 28.4002 14.9374C28.3766 14.8452 28.3358 14.7576 28.3096 14.7427C28.2346 14.6998 28.3321 15.1636 28.5117 15.7041C28.6012 15.9735 28.6939 16.2758 28.7177 16.3755C28.7413 16.4752 28.825 16.7892 28.9036 17.0736C28.9822 17.3579 29.0653 17.6959 29.0884 17.8245L29.1304 18.0581L28.8803 17.8083C28.7427 17.6708 28.4044 17.2981 28.1283 16.9801C27.8522 16.6621 27.4078 16.1647 27.1409 15.8751C26.874 15.5856 26.5963 15.257 26.5238 15.145C26.3954 14.9467 26.3926 14.9268 26.42 14.3945C26.4472 13.8682 26.6047 12.6167 26.6504 12.5651C26.6626 12.5513 26.6966 12.7227 26.7259 12.9457C26.8337 13.766 27.1574 14.9769 27.4461 15.6387C27.5588 15.897 27.7039 16.0763 27.6341 15.871C27.616 15.8178 27.5337 15.3767 27.451 14.8908C27.3265 14.159 27.2971 13.8339 27.2797 12.9953C27.2683 12.4387 27.2802 11.96 27.3053 11.9313C27.3096 11.9266 27.3157 11.9247 27.3241 11.9255ZM31.6828 13.1476C31.6933 13.1396 31.7143 13.1719 31.7457 13.2427C31.9424 13.6867 32.1429 14.0947 32.3597 14.4917C32.4963 14.7417 32.7053 15.1678 32.8242 15.4385C32.943 15.7091 33.1916 16.2535 33.3766 16.6479C33.5617 17.0424 33.7463 17.4579 33.7869 17.5712C33.8744 17.8151 33.9574 17.9171 33.9489 17.7703C33.9331 17.4998 33.4084 15.8074 33.0241 14.787C32.8765 14.3952 32.7632 14.0662 32.7722 14.056C32.7813 14.0458 32.8973 14.2017 33.0301 14.4021C33.1629 14.6026 33.4078 14.9253 33.5744 15.1189C35.1494 16.9501 35.2283 17.0553 35.6627 17.896C36.1928 18.9221 36.4034 19.5602 36.6328 20.8393C36.7563 21.5271 36.7716 21.72 36.7632 22.4836C36.7582 22.9593 36.7253 23.5148 36.6906 23.7182C36.6559 23.9215 36.6171 24.1539 36.6042 24.2343C36.5615 24.5005 36.5096 24.4359 36.4607 24.0551C36.3663 23.3216 35.8114 21.3956 35.7231 21.4954C35.711 21.5092 35.744 21.8468 35.7969 22.2456C35.8895 22.9444 36.0105 25.2208 35.9577 25.2801C35.8981 25.3475 35.7144 25.1951 35.7089 25.0737C35.7059 25.0028 35.6789 24.9459 35.6494 24.9473C35.6198 24.9488 35.5454 24.8463 35.4839 24.7196C35.4184 24.5848 35.3383 24.4908 35.2906 24.4931C35.2195 24.4965 35.2164 24.5567 35.2631 24.966C35.2927 25.224 35.2986 25.4358 35.276 25.4369C35.2275 25.4392 34.3411 24.5105 33.9958 24.0956C33.864 23.9372 33.6189 23.5462 33.4511 23.2267C33.2809 22.9028 33.1276 22.6669 33.1045 22.6934C33.0588 22.746 33.1768 23.2414 33.3151 23.5776C33.364 23.6963 33.5166 24.0073 33.6543 24.2684C33.9397 24.81 34.2567 25.4862 34.2259 25.4877C34.2145 25.4882 34.126 25.3805 34.0293 25.2483C33.9326 25.1161 33.7273 24.8608 33.5732 24.681C33.2118 24.2591 32.456 23.1414 32.2057 22.6587C31.6054 21.5012 31.2714 20.3218 31.1708 19.0074C31.1151 18.2796 31.118 18.0503 31.2008 17.2247C31.3234 15.9885 31.3904 15.2064 31.4127 14.752L31.4307 14.3842L31.476 14.6179C31.5009 14.7463 31.5451 15.0624 31.5742 15.3203C31.7346 16.7396 32.3706 19.0602 32.977 20.4398C33.3506 21.2894 33.5991 21.7638 34.0009 22.3937C34.2013 22.7079 34.4157 23.0494 34.4772 23.1526C34.6102 23.376 34.7485 23.4464 34.6847 23.2583C34.6619 23.1911 34.4952 22.8012 34.3146 22.3921C33.3185 20.136 32.5618 17.637 31.879 14.3463C31.7153 13.5572 31.6515 13.1715 31.6828 13.1476ZM40.876 13.8873L40.9053 14.0457C40.9757 14.4252 40.8884 14.7395 40.9264 14.7376C40.9467 14.7367 41.12 14.3814 41.2198 14.0443C41.1077 14.0011 40.96 13.9287 40.876 13.8873ZM41.7092 14.2334L41.7296 14.326C41.8645 14.9355 41.6863 15.4367 41.6146 15.5974C41.5639 15.711 41.5635 15.7451 41.6083 15.7242C41.6935 15.6858 41.9076 15.2833 41.9647 15.0542C41.9934 14.9387 42.0457 14.6466 42.0848 14.3632C41.9709 14.339 41.8226 14.2603 41.7092 14.2334ZM25.2409 14.6572C25.2817 14.6559 26.5798 15.9912 26.9434 16.4086C27.0277 16.5054 27.3377 16.8437 27.6327 17.16C28.7228 18.3297 30.5613 20.4365 30.9018 20.9065C30.9825 21.0179 31.1133 21.2954 31.1923 21.5228C31.3771 22.055 31.936 23.2187 32.3346 23.9026L32.6467 24.4375L32.696 25.0849C32.7433 25.7046 32.6959 26.5047 32.6114 26.5088C32.5912 26.5097 32.5293 26.389 32.4739 26.2404C32.2466 25.6317 31.8171 24.7902 31.5264 24.3831C31.3562 24.145 31.2099 23.9582 31.201 23.9682C31.1921 23.9783 31.2577 24.171 31.3469 24.3966C31.6057 25.0512 31.9168 26.3568 31.7714 26.1782C31.762 26.1667 31.5212 25.8268 31.2361 25.4228C30.4924 24.3687 30.42 24.2505 29.7148 22.9419C29.6657 22.8506 29.6096 22.7766 29.5904 22.7775C29.4975 22.782 29.8258 23.7124 30.1813 24.4519C30.3574 24.8179 30.5986 25.325 30.7171 25.5786C30.8357 25.8323 30.9771 26.0939 31.0315 26.16C31.0859 26.226 31.1315 26.3035 31.1328 26.3321C31.1371 26.4219 30.0676 25.3665 29.7453 24.9626C29.5758 24.7504 29.3824 24.4728 29.3154 24.3459C29.1748 24.0795 29.0381 23.9456 29.0442 24.08C29.0503 24.214 29.3046 24.7857 29.4809 25.062C29.6567 25.3374 29.9856 25.8345 30.338 26.3568C30.5688 26.6989 30.9351 27.1438 31.0726 27.2489C31.1218 27.2865 31.1373 27.3068 31.1081 27.3068C31.0579 27.3064 30.8802 27.2497 30.5181 27.1234C29.134 26.6408 28.1322 26.0523 27.1136 25.124C26.0931 24.1936 25.6553 23.5767 25.3051 22.5759C24.9666 21.6084 24.7459 20.2686 24.6793 18.7814C24.6401 17.9045 24.6698 17.702 24.7957 17.9891C25.0354 18.5356 25.5495 19.4342 25.7625 19.6788C26.0086 19.9615 26.4453 20.3098 26.5473 20.3049C26.5767 20.3035 26.5275 20.2292 26.438 20.1399C26.0632 19.7659 25.708 19.1202 25.2511 17.9827C24.9028 17.1152 24.5731 15.7933 24.7484 15.9672C24.7748 15.9933 24.8756 16.1957 24.9728 16.4168C25.0699 16.638 25.2397 16.9452 25.3497 17.0996C25.5771 17.4186 25.9189 17.7488 25.9404 17.6702C25.9483 17.6413 25.8818 17.4837 25.7925 17.32C25.6325 17.0259 25.1272 15.6611 25.1636 15.62C25.1931 15.5866 25.8201 16.2824 26.2352 16.8096C26.9422 17.7076 27.1606 17.9699 27.1993 17.968C27.2637 17.9649 27.2509 17.9374 26.7803 17.0553C26.2649 16.0897 26.0265 15.7123 25.5879 15.1672C25.4195 14.9576 25.2625 14.7577 25.2393 14.7228C25.2198 14.693 25.2194 14.6651 25.2409 14.6572ZM19.5129 17.0333C19.695 17.0585 20.1359 17.2687 20.9093 17.6988C21.0945 17.8017 21.2566 17.8737 21.2696 17.859C21.2827 17.8443 21.2078 17.7484 21.1033 17.646C20.9035 17.45 20.764 17.2397 20.804 17.1945C20.8519 17.1404 22.5422 18.1224 23.5411 18.7846C23.9445 19.052 24.1389 19.2133 24.1651 19.3025C24.1859 19.3739 24.2385 19.7369 24.2815 20.1092C24.3244 20.4815 24.3766 20.8719 24.3974 20.9765L24.4354 21.1667L24.1522 20.8684C23.4984 20.1799 22.9806 19.7369 22.9157 19.8102C22.8948 19.8339 23.2434 20.2965 23.3267 20.3556C23.3457 20.3691 23.5946 20.6993 23.8796 21.0887C24.4045 21.8063 24.7395 22.354 24.7464 22.5053C24.7481 22.551 24.8014 22.7055 24.8639 22.8486C24.9651 23.0803 25.0014 23.1975 24.9639 23.2109C24.9585 23.2129 24.9519 23.2127 24.9435 23.2105C24.9032 23.1996 24.8277 23.1407 24.714 23.0375C24.3964 22.749 23.6175 21.8971 22.9106 21.0652C22.4475 20.5201 21.7494 19.7148 21.548 19.4934C21.3917 19.3215 21.3987 19.3959 21.5687 19.6941C21.9228 20.3177 23.3776 22.2937 23.8039 22.7295C23.8643 22.7913 23.9022 22.8549 23.8881 22.8708C23.8374 22.9281 22.8144 22.4196 22.3908 22.1265C22.1529 21.9618 21.946 21.841 21.931 21.8579C21.8998 21.8932 22.2779 22.3648 22.4801 22.5426C22.6087 22.6557 22.6727 22.7842 22.5717 22.7266C22.5455 22.7116 22.3085 22.6636 22.045 22.6201C20.8243 22.4181 20.4042 22.3409 20.3745 22.3133C20.3309 22.2725 19.7374 20.6513 19.5896 20.1696C19.4041 19.564 18.9974 17.8929 19.0354 17.891C19.0542 17.8901 19.1971 18.1248 19.353 18.4127C19.6663 18.9908 20.1647 19.7111 20.5215 20.1008C20.649 20.2401 20.821 20.4293 20.9032 20.5212C20.9855 20.6131 21.0664 20.6728 21.0831 20.654C21.119 20.6134 21.0435 20.4708 20.7168 19.9625C20.2316 19.2072 19.6428 17.8614 19.5345 17.2603C19.5118 17.1339 19.5021 17.032 19.5129 17.0333ZM44.3583 22.2296C44.1559 23.0775 44.1249 23.7017 44.1021 24.3557C44.086 24.8188 44.1344 24.8337 44.2499 24.401C44.4073 23.6244 44.4904 23.3116 44.7088 22.7384C44.5522 22.541 44.4402 22.3699 44.3583 22.2296ZM19.4194 22.6459C19.5968 22.7115 20.4427 22.8857 21.0513 22.9821C23.3662 23.3485 23.9574 23.5379 25.2262 24.32C25.9255 24.7512 26.5716 25.2932 27.2373 26.0068C27.8259 26.6378 28.0978 26.9963 28.5048 27.6773C28.8633 28.2771 28.8651 28.3224 28.5244 27.9832C28.1784 27.6399 26.2661 26.2745 26.1795 26.309C26.1488 26.3212 26.5665 26.7572 27.1076 27.278C27.9401 28.0792 28.7596 28.9956 28.7659 29.1321C28.7663 29.1525 28.7154 29.1598 28.6519 29.1483C28.199 29.0658 27.7194 29.0035 27.7007 29.0246C27.6611 29.0693 27.7893 29.1793 28.1388 29.4004C28.5189 29.641 28.5931 29.7729 28.322 29.7266C28.2303 29.7109 28.1328 29.686 28.1052 29.6708C28.0776 29.6559 27.9628 29.6534 27.8502 29.6656C27.3788 29.7172 26.0716 29.4272 25.276 29.0946C25.0621 29.0051 24.8874 28.9411 24.8879 28.9524C24.8883 28.9636 25.0489 29.0933 25.2447 29.2402C25.8063 29.6618 27.121 30.2036 27.7669 30.2796C27.9479 30.3008 27.9891 30.3176 27.9248 30.3255C27.8606 30.3334 27.691 30.3327 27.4503 30.3189C25.2767 30.1931 23.1313 29.3279 21.67 27.9875C20.9074 27.2882 20.5872 26.9008 20.0192 25.9908C19.7399 25.5434 19.3369 24.9441 19.124 24.6593C18.3263 23.5932 18.3121 23.5468 18.9776 24.1881C20.9039 26.0448 23.2942 27.5185 25.5521 28.2422C25.9879 28.3819 26.616 28.4858 26.5362 28.4049C26.5176 28.386 26.2244 28.2413 25.8851 28.0835C23.9371 27.1782 21.2512 25.4455 19.1773 23.7563C18.8283 23.4723 18.4065 23.1406 18.2399 23.0196C18.0732 22.8986 17.9464 22.789 17.958 22.7759C18.0121 22.7147 19.9501 23.5068 21.0213 24.0281C22.0416 24.5246 22.113 24.5582 22.3406 24.6492C22.8561 24.8552 22.4306 24.547 20.8227 23.549C20.376 23.2718 19.8756 22.9753 19.7107 22.8902C19.5458 22.8052 19.4097 22.7141 19.4085 22.6882C19.4073 22.6621 19.4124 22.6432 19.4194 22.6459ZM14.8835 24.2279C15.3152 24.277 16.3721 24.4342 16.947 24.5349C18.3643 24.7832 18.5819 24.8347 18.7083 24.9532C18.7751 25.0158 19.0496 25.4187 19.3183 25.8484C19.5866 26.2779 19.8455 26.6725 19.8928 26.7248C19.9753 26.8159 19.9736 26.8173 19.849 26.7595C19.7775 26.7264 19.6417 26.6457 19.5474 26.5801C19.3325 26.4305 18.9403 26.2729 18.2125 26.0431C17.9 25.9445 17.5461 25.8108 17.4261 25.7462C17.3062 25.6816 17.182 25.6299 17.15 25.6315C17.1181 25.633 17.0559 25.6008 17.0121 25.5597C16.9682 25.5186 16.9078 25.486 16.8781 25.4874C16.7666 25.4928 17.0959 25.6801 17.7114 25.9613C18.4816 26.3133 18.8907 26.5476 19.5814 27.032C20.3539 27.5741 21.2476 28.4553 21.1306 28.521C21.1139 28.5304 21.0763 28.5232 21.0151 28.4959C20.9623 28.4724 20.7137 28.3625 20.4626 28.2515C19.8264 27.9704 18.7596 27.3908 16.498 26.0973C16.2176 25.937 16.1294 25.9284 16.2583 26.0738C16.3494 26.1765 17.9314 27.2795 18.6419 27.7356C18.9281 27.9193 19.1325 28.0815 19.0962 28.0959C19.0237 28.1247 18.6959 28.0875 17.5239 27.9171C17.0953 27.8548 16.3981 27.7714 15.9744 27.732C15.5507 27.6924 15.1596 27.6456 15.1054 27.6277C15.0137 27.5975 13.6389 25.6835 13.6342 25.5796C13.633 25.5537 13.8192 25.6913 14.048 25.8856C14.2768 26.0798 14.5559 26.296 14.6682 26.3657C14.7805 26.4353 14.9793 26.5739 15.1099 26.6736C15.5698 27.0249 16.6529 27.5859 16.7215 27.5084C16.7358 27.4922 16.7129 27.4594 16.6706 27.4355C16.4008 27.2825 15.5242 26.6044 15.3564 26.4187C15.2848 26.3395 15.0428 26.0832 14.8184 25.8491C14.594 25.615 14.3091 25.2984 14.1853 25.1459C14.0615 24.9934 13.9237 24.8331 13.8792 24.7896C13.695 24.6099 13.7666 24.5732 14.2886 24.58C14.9345 24.5883 15.4448 24.707 15.8549 24.9443C16.2972 25.2003 16.3775 25.2327 16.1588 25.0668C16.0585 24.9908 15.867 24.8383 15.7332 24.7281C15.5994 24.6179 15.4154 24.5003 15.3244 24.4666C15.2335 24.4329 15.1582 24.3872 15.1572 24.3651C15.1567 24.343 15.127 24.3273 15.0921 24.3303C14.9377 24.3437 14.8499 24.3241 14.8477 24.2757C14.8464 24.2469 14.8624 24.2255 14.8835 24.2279ZM59.5826 27.3175C59.2714 27.5417 58.5209 28.0284 58.3011 28.1039C57.9295 28.2314 57.9589 28.2272 59.161 27.9834C59.3523 27.9446 59.813 27.7618 59.9494 27.7318C59.799 27.5715 59.7048 27.4688 59.5826 27.3175ZM13.976 28.0488C14.135 28.0425 14.2003 28.0501 16.0024 28.2723C16.6107 28.3473 17.2556 28.4235 17.4357 28.4415C17.6156 28.4595 18.443 28.5595 19.2737 28.6637C20.1043 28.7679 20.9109 28.8625 21.0655 28.8742C21.46 28.904 21.7924 28.9926 22.0669 29.1407C22.1964 29.2107 22.3246 29.2524 22.3517 29.2333C22.3788 29.2142 22.5226 29.2764 22.6716 29.3716C23.0109 29.5883 24.1334 30.088 24.8495 30.3411C25.5278 30.5808 25.82 30.7518 26.1626 31.11C26.4716 31.4332 26.8796 31.9902 26.9454 32.1784C26.9879 32.3 26.9783 32.2975 26.7586 32.13C26.6048 32.0128 26.4714 31.9544 26.362 31.9567C26.2714 31.9584 26.0275 31.8859 25.82 31.7951C24.138 31.0588 24.0905 31.0818 25.4444 31.9766C25.8401 32.2384 26.1661 32.4703 26.1679 32.4918C26.1821 32.6575 24.9036 32.3263 23.2447 31.7348C22.8104 31.5798 22.4206 31.4546 22.379 31.4566C22.2281 31.4639 22.3137 31.5488 22.5798 31.6552C22.7296 31.7151 23.178 31.937 23.5764 32.1483C24.3143 32.5396 25.6539 33.1323 25.786 33.1259C25.8262 33.1239 25.8488 33.1338 25.8367 33.1474C25.8042 33.1841 24.8669 33.1279 24.3625 33.0592C23.8938 32.9953 22.9067 32.7695 22.7493 32.69C22.5917 32.6103 22.6014 32.6839 22.756 32.7856C23.3673 33.1755 25.0955 33.7492 25.9733 33.8538C26.2613 33.8881 26.4529 33.9844 26.2523 33.9941C26.1931 33.9972 25.8965 34.0927 25.593 34.2069C24.7546 34.5241 23.6896 34.8266 22.9162 34.8833C22.7538 34.8952 22.6285 34.892 22.4939 34.8807C22.3806 34.8824 22.1872 34.8937 22.1011 34.8842C21.8914 34.8606 21.3178 34.8202 21.1781 34.8275C21.0036 34.8219 20.8872 34.8155 20.772 34.798C20.3641 34.7361 19.8666 34.5598 19.4061 34.3516C18.6559 34.0123 18.0546 33.583 17.212 32.7851C16.5511 32.1592 15.4707 30.9745 15.5153 30.9241C15.527 30.9109 15.6876 30.9703 15.8722 31.0563C16.3612 31.2838 17.2241 31.5323 18.2432 31.7388C18.8994 31.8718 18.709 31.7346 17.7822 31.4071C16.4792 30.9468 15.0813 30.1965 14.5363 29.6653C14.3263 29.4606 14.3851 29.4347 14.7331 29.5778C14.8614 29.6305 15.2102 29.7402 15.5079 29.8217C16.4914 30.0908 16.6788 30.0558 15.976 29.7341C15.4959 29.5143 14.4293 28.9081 14.4605 28.8728C14.4938 28.8351 15.6394 28.958 16.058 29.044C16.5671 29.1487 17.0279 29.2705 17.2793 29.3665C17.583 29.4827 17.5593 29.3531 17.2513 29.2065C16.3092 28.7601 15.4707 28.4708 14.1584 28.1395C13.927 28.0816 13.8707 28.053 13.976 28.0488ZM22.1562 29.0607C22.1702 29.0598 22.211 29.0823 22.2766 29.1284C22.3328 29.168 22.353 29.2024 22.3215 29.2047C22.29 29.2071 22.2345 29.1753 22.1978 29.1339C22.1553 29.0861 22.1416 29.0616 22.1562 29.0607ZM15.9493 32.2244L16.61 32.8823C16.9732 33.244 17.2577 33.5542 17.2422 33.5717C17.2268 33.5892 17.1026 33.5819 16.967 33.5555C16.4776 33.4604 14.9686 33.4963 15.2729 33.5959C15.3155 33.6099 15.6315 33.6564 15.9749 33.6995C16.318 33.7426 16.8495 33.839 17.1556 33.9137C17.678 34.0411 17.9 34.1328 18.8063 34.5951L19.1711 34.7811L18.9689 34.8091C18.7346 34.8411 18.058 34.7881 17.3593 34.6833C17.0914 34.6433 16.5492 34.565 16.1546 34.5091C15.7601 34.4535 15.1488 34.3651 14.7964 34.3128C13.9659 34.1894 13.5772 34.1602 13.6468 34.2257C13.7048 34.2802 14.0141 34.3566 15.3462 34.6456C16.8482 34.9715 17.4533 35.1098 17.5059 35.1394C17.5338 35.1552 17.6428 35.1573 17.748 35.1446C17.9512 35.1197 18.0057 35.1922 17.854 35.2854C17.8046 35.3159 17.6064 35.3759 17.4146 35.4187C17.2225 35.4616 16.9899 35.5463 16.8977 35.6068C16.7502 35.7036 16.6708 35.7154 16.2401 35.7054C15.6263 35.691 15.6626 35.7663 16.3352 35.9013C16.5949 35.9534 16.8084 36.0105 16.8092 36.0283C16.8143 36.1182 15.1821 37.096 15.0143 37.1041C14.8803 37.1104 14.06 36.6736 13.2148 36.1456C12.5936 35.7577 11.2772 34.7877 11.2286 34.6822C11.2108 34.6436 11.3028 34.6579 11.4694 34.7194C11.8753 34.8694 13.3459 35.2889 13.7146 35.3599C14.0582 35.4262 14.7007 35.4189 14.5127 35.3496C14.4558 35.329 14.1184 35.2128 13.7628 35.0916C13.0606 34.8521 12.309 34.5203 11.8141 34.2309C11.3763 33.975 11.0526 33.7232 11.0486 33.6355C11.0454 33.5649 11.6877 33.3399 12.0509 33.2844C12.6785 33.1884 12.8229 33.0195 12.2562 33.0441C12.0321 33.0539 11.9392 33.0419 11.9881 33.0091C12.0904 32.9406 12.9867 32.7271 14.0778 32.5115C14.5771 32.4128 15.203 32.3077 15.4677 32.2781L15.9493 32.2244Z" fill="black" stroke="black" stroke-width="0.447175"/>
<path opacity="0.658797" d="M46.0631 24.2171C45.9976 24.5004 45.8809 24.7305 45.7892 24.9375C45.5609 25.4529 45.4093 25.7857 45.2748 26.0739C45.1789 26.2794 45.0871 26.4585 44.9485 26.6642C44.8853 26.695 44.851 26.7736 44.8143 26.8484C45.1641 26.6841 46.2987 25.4161 46.4081 25.2387C46.4678 25.142 46.5201 25.1368 46.7283 24.7781C46.4888 24.6031 46.2843 24.4045 46.0631 24.2171Z" fill="#FFC893"/>
</g>
<defs>
<clipPath id="clip0_1_4">
<rect width="77" height="79" fill="white"/>
</clipPath>
</defs>
</svg>
