<svg width="38" height="38" viewBox="0 0 38 38" fill="none" xmlns="http://www.w3.org/2000/svg">
<path d="M16.9084 15.1524C12.2466 14.9275 9.00616 16.5896 7.18705 20.1387C4.45842 25.4623 6.71354 34.1735 15.8166 34.1735C24.9196 34.1735 25.1829 25.3772 25.1829 24.4557C25.1829 23.8413 25.1829 20.4063 25.1829 14.1507C27.1299 15.3839 28.7715 16.1262 30.1077 16.3777C31.4439 16.6292 32.2933 16.7406 32.656 16.7121V11.5855C31.4201 11.4365 30.3514 11.1524 29.4498 10.7335C28.0973 10.105 25.4154 8.36084 25.4154 5.80453C25.4173 5.81703 25.4173 5.15762 25.4154 3.82629H19.7803C19.7636 16.3473 19.7636 23.2237 19.7803 24.4557C19.8055 26.3035 18.3721 28.8883 15.4656 28.8883C12.5592 28.8883 11.1257 26.3055 11.1257 24.6397C11.1257 23.6199 11.476 22.1417 12.924 21.0471C13.7828 20.3979 14.9746 20.1387 16.9084 20.1387C16.9084 19.5405 16.9084 17.8784 16.9084 15.1524Z" stroke="white" stroke-width="1.33333" stroke-linejoin="round"/>
</svg>
