<?xml version="1.0" encoding="UTF-8" standalone="no"?>
<!DOCTYPE svg PUBLIC "-//W3C//DTD SVG 1.1//EN"
 "http://www.w3.org/Graphics/SVG/1.1/DTD/svg11.dtd">
<!-- Generated by graphviz version 2.47.0 (20210316.0004)
 -->
<!-- Title: dependencies Pages: 1 -->
<svg width="1157pt" height="287pt"
 viewBox="0.00 0.00 1157.00 287.00" xmlns="http://www.w3.org/2000/svg" xmlns:xlink="http://www.w3.org/1999/xlink">
<g id="graph0" class="graph" transform="scale(1 1) rotate(0) translate(4 283)">
<title>dependencies</title>
<polygon fill="white" stroke="transparent" points="-4,4 -4,-283 1153,-283 1153,4 -4,4"/>
<text text-anchor="start" x="553.51" y="-42.4" font-family="Times-12" font-weight="bold" font-size="14.00">Legend</text>
<polygon fill="#ffffb3" stroke="transparent" points="340.5,-10 340.5,-30 360.5,-30 360.5,-10 340.5,-10"/>
<text text-anchor="start" x="364.13" y="-15.4" font-family="Times-12" font-size="14.00"> &#160;Declarations</text>
<polygon fill="#8dd3c7" stroke="transparent" points="453.5,-10 453.5,-30 473.5,-30 473.5,-10 453.5,-10"/>
<text text-anchor="start" x="477.23" y="-15.4" font-family="Times-12" font-size="14.00"> &#160;Module</text>
<polygon fill="#80b1d3" stroke="transparent" points="539.5,-10 539.5,-30 559.5,-30 559.5,-10 539.5,-10"/>
<text text-anchor="start" x="563.28" y="-15.4" font-family="Times-12" font-size="14.00"> &#160;Bootstrap</text>
<polygon fill="#fdb462" stroke="transparent" points="636.5,-10 636.5,-30 656.5,-30 656.5,-10 636.5,-10"/>
<text text-anchor="start" x="660.17" y="-15.4" font-family="Times-12" font-size="14.00"> &#160;Providers</text>
<polygon fill="#fb8072" stroke="transparent" points="732.5,-10 732.5,-30 752.5,-30 752.5,-10 732.5,-10"/>
<text text-anchor="start" x="756.23" y="-15.4" font-family="Times-12" font-size="14.00"> &#160;Exports</text>
<g id="clust7" class="cluster">
<title>cluster_MiamicakesModule</title>
<polygon fill="none" stroke="black" stroke-dasharray="1,5" points="8,-70 8,-271 190,-271 190,-70 8,-70"/>
</g>
<g id="clust8" class="cluster">
<title>cluster_MiamicakesModule_declarations</title>
<polygon fill="none" stroke="black" points="17,-78 17,-130 181,-130 181,-78 17,-78"/>
</g>
<g id="clust11" class="cluster">
<title>cluster_MiamicakesModule_exports</title>
<polygon fill="none" stroke="black" points="16,-211 16,-263 182,-263 182,-211 16,-211"/>
</g>
<g id="clust14" class="cluster">
<title>cluster_PagesModule</title>
<polygon fill="none" stroke="black" stroke-dasharray="1,5" points="198,-138 198,-263 1141,-263 1141,-138 198,-138"/>
</g>
<g id="clust16" class="cluster">
<title>cluster_PagesModule_imports</title>
<polygon fill="none" stroke="black" points="206,-146 206,-198 1133,-198 1133,-146 206,-146"/>
</g>
<!-- PhotoSliderComponent -->
<g id="node1" class="node">
<title>PhotoSliderComponent</title>
<polygon fill="#ffffb3" stroke="black" points="172.95,-122 25.05,-122 25.05,-86 172.95,-86 172.95,-122"/>
<text text-anchor="middle" x="99" y="-99.8" font-family="Times,serif" font-size="14.00">PhotoSliderComponent</text>
</g>
<!-- MiamicakesModule -->
<g id="node2" class="node">
<title>MiamicakesModule</title>
<polygon fill="#8dd3c7" stroke="black" points="162.97,-190 159.97,-194 138.97,-194 135.97,-190 35.03,-190 35.03,-154 162.97,-154 162.97,-190"/>
<text text-anchor="middle" x="99" y="-167.8" font-family="Times,serif" font-size="14.00">MiamicakesModule</text>
</g>
<!-- PhotoSliderComponent&#45;&gt;MiamicakesModule -->
<g id="edge1" class="edge">
<title>PhotoSliderComponent&#45;&gt;MiamicakesModule</title>
<path fill="none" stroke="black" d="M99,-122.22C99,-122.22 99,-143.73 99,-143.73"/>
<polygon fill="black" stroke="black" points="95.5,-143.73 99,-153.73 102.5,-143.73 95.5,-143.73"/>
</g>
<!-- PhotoSliderComponent  -->
<g id="node3" class="node">
<title>PhotoSliderComponent </title>
<polygon fill="#fb8072" stroke="black" points="174.44,-255 23.56,-255 23.56,-219 174.44,-219 174.44,-255"/>
<text text-anchor="middle" x="99" y="-232.8" font-family="Times,serif" font-size="14.00">PhotoSliderComponent </text>
</g>
<!-- MiamicakesModule&#45;&gt;PhotoSliderComponent  -->
<g id="edge2" class="edge">
<title>MiamicakesModule&#45;&gt;PhotoSliderComponent </title>
<path fill="none" stroke="black" stroke-dasharray="5,2" d="M99,-190.11C99,-190.11 99,-208.99 99,-208.99"/>
<polygon fill="black" stroke="black" points="95.5,-208.99 99,-218.99 102.5,-208.99 95.5,-208.99"/>
</g>
<!-- PagesModule -->
<g id="node10" class="node">
<title>PagesModule</title>
<polygon fill="#8dd3c7" stroke="black" points="511.21,-255 508.21,-259 487.21,-259 484.21,-255 418.79,-255 418.79,-219 511.21,-219 511.21,-255"/>
<text text-anchor="middle" x="465" y="-232.8" font-family="Times,serif" font-size="14.00">PagesModule</text>
</g>
<!-- MiamicakesModule&#45;&gt;PagesModule -->
<g id="edge6" class="edge">
<title>MiamicakesModule&#45;&gt;PagesModule</title>
<path fill="none" stroke="black" d="M163.2,-172C180.47,-172 194.46,-172 194.46,-172 194.46,-172 194.46,-246 194.46,-246 194.46,-246 408.8,-246 408.8,-246"/>
<polygon fill="black" stroke="black" points="408.8,-249.5 418.8,-246 408.8,-242.5 408.8,-249.5"/>
</g>
<!-- BannerCustomCakeComponent -->
<g id="node4" class="node">
<title>BannerCustomCakeComponent</title>
<polygon fill="#8dd3c7" stroke="black" points="1125.09,-190 1122.09,-194 1101.09,-194 1098.09,-190 930.91,-190 930.91,-154 1125.09,-154 1125.09,-190"/>
<text text-anchor="middle" x="1028" y="-167.8" font-family="Times,serif" font-size="14.00">BannerCustomCakeComponent</text>
</g>
<!-- BannerCustomCakeComponent&#45;&gt;PagesModule -->
<g id="edge3" class="edge">
<title>BannerCustomCakeComponent&#45;&gt;PagesModule</title>
<path fill="none" stroke="black" d="M1028,-190.29C1028,-212.21 1028,-246 1028,-246 1028,-246 521.55,-246 521.55,-246"/>
<polygon fill="black" stroke="black" points="521.55,-242.5 511.55,-246 521.55,-249.5 521.55,-242.5"/>
</g>
<!-- CustomCakesComponent -->
<g id="node5" class="node">
<title>CustomCakesComponent</title>
<polygon fill="#8dd3c7" stroke="black" points="912.61,-190 909.61,-194 888.61,-194 885.61,-190 753.39,-190 753.39,-154 912.61,-154 912.61,-190"/>
<text text-anchor="middle" x="833" y="-167.8" font-family="Times,serif" font-size="14.00">CustomCakesComponent</text>
</g>
<!-- CustomCakesComponent&#45;&gt;PagesModule -->
<g id="edge4" class="edge">
<title>CustomCakesComponent&#45;&gt;PagesModule</title>
<path fill="none" stroke="black" d="M833,-190.11C833,-209.34 833,-237 833,-237 833,-237 521.23,-237 521.23,-237"/>
<polygon fill="black" stroke="black" points="521.23,-233.5 511.23,-237 521.23,-240.5 521.23,-233.5"/>
</g>
<!-- FooterComponent -->
<g id="node6" class="node">
<title>FooterComponent</title>
<polygon fill="#8dd3c7" stroke="black" points="735.88,-190 732.88,-194 711.88,-194 708.88,-190 618.12,-190 618.12,-154 735.88,-154 735.88,-190"/>
<text text-anchor="middle" x="677" y="-167.8" font-family="Times,serif" font-size="14.00">FooterComponent</text>
</g>
<!-- FooterComponent&#45;&gt;PagesModule -->
<g id="edge5" class="edge">
<title>FooterComponent&#45;&gt;PagesModule</title>
<path fill="none" stroke="black" d="M677,-190.03C677,-206.4 677,-228 677,-228 677,-228 521.26,-228 521.26,-228"/>
<polygon fill="black" stroke="black" points="521.26,-224.5 511.26,-228 521.26,-231.5 521.26,-224.5"/>
</g>
<!-- NavbarComponent -->
<g id="node7" class="node">
<title>NavbarComponent</title>
<polygon fill="#8dd3c7" stroke="black" points="600.03,-190 597.03,-194 576.03,-194 573.03,-190 477.97,-190 477.97,-154 600.03,-154 600.03,-190"/>
<text text-anchor="middle" x="539" y="-167.8" font-family="Times,serif" font-size="14.00">NavbarComponent</text>
</g>
<!-- NavbarComponent&#45;&gt;PagesModule -->
<g id="edge7" class="edge">
<title>NavbarComponent&#45;&gt;PagesModule</title>
<path fill="none" stroke="black" d="M494.42,-190.11C494.42,-190.11 494.42,-208.99 494.42,-208.99"/>
<polygon fill="black" stroke="black" points="490.92,-208.99 494.42,-218.99 497.92,-208.99 490.92,-208.99"/>
</g>
<!-- NosotrosComponentc -->
<g id="node8" class="node">
<title>NosotrosComponentc</title>
<polygon fill="#8dd3c7" stroke="black" points="460.09,-190 457.09,-194 436.09,-194 433.09,-190 321.91,-190 321.91,-154 460.09,-154 460.09,-190"/>
<text text-anchor="middle" x="391" y="-167.8" font-family="Times,serif" font-size="14.00">NosotrosComponentc</text>
</g>
<!-- NosotrosComponentc&#45;&gt;PagesModule -->
<g id="edge8" class="edge">
<title>NosotrosComponentc&#45;&gt;PagesModule</title>
<path fill="none" stroke="black" d="M439.47,-190.11C439.47,-190.11 439.47,-208.99 439.47,-208.99"/>
<polygon fill="black" stroke="black" points="435.97,-208.99 439.47,-218.99 442.97,-208.99 435.97,-208.99"/>
</g>
<!-- RouterOutlet -->
<g id="node9" class="node">
<title>RouterOutlet</title>
<polygon fill="#8dd3c7" stroke="black" points="303.6,-190 300.6,-194 279.6,-194 276.6,-190 214.4,-190 214.4,-154 303.6,-154 303.6,-190"/>
<text text-anchor="middle" x="259" y="-167.8" font-family="Times,serif" font-size="14.00">RouterOutlet</text>
</g>
<!-- RouterOutlet&#45;&gt;PagesModule -->
<g id="edge9" class="edge">
<title>RouterOutlet&#45;&gt;PagesModule</title>
<path fill="none" stroke="black" d="M273.85,-190.03C273.85,-206.4 273.85,-228 273.85,-228 273.85,-228 408.73,-228 408.73,-228"/>
<polygon fill="black" stroke="black" points="408.73,-231.5 418.73,-228 408.73,-224.5 408.73,-231.5"/>
</g>
<!-- RouterOutlet&#45;&gt;PagesModule -->
<g id="edge10" class="edge">
<title>RouterOutlet&#45;&gt;PagesModule</title>
<path fill="none" stroke="black" d="M244.15,-190.11C244.15,-209.34 244.15,-237 244.15,-237 244.15,-237 408.7,-237 408.7,-237"/>
<polygon fill="black" stroke="black" points="408.7,-240.5 418.7,-237 408.7,-233.5 408.7,-240.5"/>
</g>
</g>
</svg>
